<?xml version="1.0" encoding="UTF-8" standalone="no"?>
<!-- Created with Inkscape (http://www.inkscape.org/) -->

<svg
   width="800px"
   height="800px"
   viewBox="0 0 800 800"
   version="1.1"
   id="SVGRoot"
   sodipodi:docname="drawing2.svg"
   inkscape:version="1.1.2 (b8e25be833, 2022-02-05)"
   xmlns:inkscape="http://www.inkscape.org/namespaces/inkscape"
   xmlns:sodipodi="http://sodipodi.sourceforge.net/DTD/sodipodi-0.dtd"
   xmlns="http://www.w3.org/2000/svg"
   xmlns:svg="http://www.w3.org/2000/svg">
  <sodipodi:namedview
     id="namedview14"
     pagecolor="#505050"
     bordercolor="#eeeeee"
     borderopacity="1"
     inkscape:pageshadow="0"
     inkscape:pageopacity="0"
     inkscape:pagecheckerboard="0"
     inkscape:document-units="px"
     showgrid="false"
     inkscape:zoom="0.90583674"
     inkscape:cx="446.54846"
     inkscape:cy="412.32596"
     inkscape:window-width="1920"
     inkscape:window-height="1111"
     inkscape:window-x="-9"
     inkscape:window-y="-9"
     inkscape:window-maximized="1"
     inkscape:current-layer="layer1"
     showguides="true"
     inkscape:guide-bbox="true" />
  <defs
     id="defs9" />
  <g
     inkscape:label="background square"
     inkscape:groupmode="layer"
     id="layer1"
     style="display:inline">
    <rect
       style="fill:#617032;fill-opacity:1;fill-rule:evenodd"
       id="rect64"
       width="800"
       height="800"
       x="-2.2867198e-08"
       y="-2.2867198e-08" />
  </g>
  <g
     inkscape:groupmode="layer"
     id="layer2"
     inkscape:label="background circle"
     style="display:inline">
    <circle
       style="fill:#4f7e9d;fill-opacity:1;stroke:none;stroke-width:40;stroke-miterlimit:4;stroke-dasharray:none;stroke-opacity:1"
       id="path3692"
       cx="400"
       cy="400"
       r="370" />
  </g>
  <g
     inkscape:groupmode="layer"
     id="layer20"
     inkscape:label="flower6"
     style="display:inline">
    <path
       style="display:inline;fill:none;stroke:#98b32a;stroke-width:0.994942;stroke-linecap:butt;stroke-linejoin:miter;stroke-miterlimit:4;stroke-dasharray:none;stroke-opacity:1"
       d="m 250.09218,298.55723 c 0,0 -7.92278,13.50167 5.94151,19.17427 13.86429,5.67258 21.14072,-3.5565 22.01523,-6.61524"
       id="path50205-1-3-4" />
    <path
       style="display:inline;fill:none;stroke:#98b32a;stroke-width:0.994942;stroke-linecap:butt;stroke-linejoin:miter;stroke-miterlimit:4;stroke-dasharray:none;stroke-opacity:1"
       d="m 275.87262,303.17132 c -3.8099,13.04081 -18.9723,15.5131 -18.9723,15.5131 0,0 -9.70556,-6.8431 -0.8545,-28.12482"
       id="path50207-9-3-9" />
    <path
       style="display:inline;fill:none;stroke:#98b32a;stroke-width:0.994942;stroke-linecap:butt;stroke-linejoin:miter;stroke-miterlimit:4;stroke-dasharray:none;stroke-opacity:1"
       d="m 267.65906,305.24371 c -0.88243,7.0704 -10.75874,13.44071 -10.75874,13.44071 0,0 -3.02532,-7.34692 9.25701,-27.91882"
       id="path50209-3-3-1" />
    <circle
       style="display:inline;fill:#d91b34;fill-opacity:1;stroke:none;stroke-width:0.737934;stroke-miterlimit:4;stroke-dasharray:none;stroke-opacity:1"
       id="path51069-5-2-6"
       cx="371.9263"
       cy="189.73557"
       transform="rotate(21.150277)"
       r="1.1069069" />
    <circle
       style="display:inline;fill:#d91b34;fill-opacity:1;stroke:none;stroke-width:1.19099;stroke-miterlimit:4;stroke-dasharray:none;stroke-opacity:1"
       id="path51069-1-8-2-6"
       cx="341.00464"
       cy="188.7607"
       transform="rotate(21.150277)"
       r="1.7864858" />
    <circle
       style="display:inline;fill:#d91b34;fill-opacity:1;stroke:none;stroke-width:1.86354;stroke-miterlimit:4;stroke-dasharray:none;stroke-opacity:1"
       id="path51069-1-2-6-3-9"
       cx="359.78903"
       cy="187.25769"
       transform="rotate(21.150277)"
       r="2.7952991" />
    <circle
       style="display:inline;fill:#d91b34;fill-opacity:1;stroke:none;stroke-width:1.45938;stroke-miterlimit:4;stroke-dasharray:none;stroke-opacity:1"
       id="path51069-1-2-1-9-9-7"
       cx="367.30588"
       cy="182.44176"
       transform="rotate(21.150277)"
       r="2.1890616" />
    <circle
       style="display:inline;fill:#d91b34;fill-opacity:1;stroke:none;stroke-width:1.07737;stroke-miterlimit:4;stroke-dasharray:none;stroke-opacity:1"
       id="path51069-1-2-1-6-5-0-9"
       cx="353.26608"
       cy="174.15547"
       transform="rotate(21.150277)"
       r="1.6160617" />
    <circle
       style="display:inline;fill:#d91b34;fill-opacity:1;stroke:none;stroke-width:1.78931;stroke-miterlimit:4;stroke-dasharray:none;stroke-opacity:1"
       id="path51069-1-2-1-6-2-7-4-0"
       cx="344.07416"
       cy="177.54475"
       transform="rotate(21.150277)"
       r="2.6839714" />
  </g>
  <g
     inkscape:groupmode="layer"
     id="layer21"
     inkscape:label="mountain">
    <path
       id="path3692-2"
       style="display:inline;fill:#0e2f45;fill-opacity:1;stroke:none;stroke-width:38.1656;stroke-miterlimit:4;stroke-dasharray:none;stroke-opacity:1"
       d="m 143.5413,172.91406 c -13.46289,0.54492 -26.51718,12.23898 -38.77557,18.85622 -48.159877,60.41487 -75.236403,128.25854 -75.558044,204.57347 0.157081,19.02847 1.92887,38.01227 5.297482,56.75977 l 435.706772,30.42773 c 0,0 3.42142,-126.95393 -17.10283,-154.55273 C 432.58486,301.37973 360.75005,300.2747 294.61637,316.83398 228.48267,333.39325 223.92192,296.9637 191.99531,210.85547 181.02054,181.25576 162.76859,172.13583 143.5413,172.91406 Z"
       sodipodi:nodetypes="sccccssss" />
  </g>
  <g
     inkscape:groupmode="layer"
     id="layer18"
     inkscape:label="flower4"
     style="display:inline">
    <path
       style="display:inline;fill:none;stroke:#98b32a;stroke-width:2.15271;stroke-linecap:butt;stroke-linejoin:miter;stroke-miterlimit:4;stroke-dasharray:none;stroke-opacity:1"
       d="m 658.24619,404.29102 c 0,0 24.56294,23.32206 -0.86152,43.42415 -25.42446,20.10207 -46.08309,5.27538 -49.7343,-0.55967"
       id="path50205-1" />
    <path
       style="display:inline;fill:none;stroke:#98b32a;stroke-width:2.15271;stroke-linecap:butt;stroke-linejoin:miter;stroke-miterlimit:4;stroke-dasharray:none;stroke-opacity:1"
       d="m 607.41363,429.33367 c 15.736,24.82873 48.74039,20.882 48.74039,20.882 0,0 16.07695,-20.04329 -15.07835,-58.98385"
       id="path50207-9" />
    <path
       style="display:inline;fill:none;stroke:#98b32a;stroke-width:2.15271;stroke-linecap:butt;stroke-linejoin:miter;stroke-miterlimit:4;stroke-dasharray:none;stroke-opacity:1"
       d="m 625.73165,428.71991 c 6.07178,14.17059 30.42237,21.49576 30.42237,21.49576 0,0 1.88674,-17.08735 -35.97682,-52.49584"
       id="path50209-3" />
    <circle
       style="display:inline;fill:#d91b34;fill-opacity:1;stroke:none;stroke-width:1.59664;stroke-miterlimit:4;stroke-dasharray:none;stroke-opacity:1"
       id="path51069-5"
       cx="-212.51819"
       cy="723.45667"
       r="2.3949697"
       transform="matrix(-0.79621045,0.60501977,0.60501977,0.79621045,0,0)" />
    <circle
       style="display:inline;fill:#d91b34;fill-opacity:1;stroke:none;stroke-width:2.5769;stroke-miterlimit:4;stroke-dasharray:none;stroke-opacity:1"
       id="path51069-1-8"
       cx="-279.42206"
       cy="721.34741"
       r="3.8653471"
       transform="matrix(-0.79621045,0.60501977,0.60501977,0.79621045,0,0)" />
    <circle
       style="display:inline;fill:#d91b34;fill-opacity:1;stroke:none;stroke-width:4.03206;stroke-miterlimit:4;stroke-dasharray:none;stroke-opacity:1"
       id="path51069-1-2-6"
       cx="-238.77914"
       cy="718.0954"
       r="6.0480752"
       transform="matrix(-0.79621045,0.60501977,0.60501977,0.79621045,0,0)" />
    <circle
       style="display:inline;fill:#d91b34;fill-opacity:1;stroke:none;stroke-width:3.1576;stroke-miterlimit:4;stroke-dasharray:none;stroke-opacity:1"
       id="path51069-1-2-1-9"
       cx="-222.5152"
       cy="707.67535"
       r="4.7363839"
       transform="matrix(-0.79621045,0.60501977,0.60501977,0.79621045,0,0)" />
    <circle
       style="display:inline;fill:#d91b34;fill-opacity:1;stroke:none;stroke-width:2.33107;stroke-miterlimit:4;stroke-dasharray:none;stroke-opacity:1"
       id="path51069-1-2-1-6-5"
       cx="-252.89252"
       cy="689.74664"
       r="3.4966073"
       transform="matrix(-0.79621045,0.60501977,0.60501977,0.79621045,0,0)" />
    <circle
       style="display:inline;fill:#d91b34;fill-opacity:1;stroke:none;stroke-width:3.87147;stroke-miterlimit:4;stroke-dasharray:none;stroke-opacity:1"
       id="path51069-1-2-1-6-2-7"
       cx="-272.78067"
       cy="697.0799"
       r="5.8072004"
       transform="matrix(-0.79621045,0.60501977,0.60501977,0.79621045,0,0)" />
  </g>
  <g
     inkscape:groupmode="layer"
     id="layer19"
     inkscape:label="flower5"
     style="display:inline">
    <path
       style="display:inline;fill:none;stroke:#98b32a;stroke-width:1.39601;stroke-linecap:butt;stroke-linejoin:miter;stroke-miterlimit:4;stroke-dasharray:none;stroke-opacity:1"
       d="m 466.10916,426.12244 c 0,0 -11.11651,18.94429 8.33657,26.90355 19.45308,7.95924 29.66268,-4.99015 30.88972,-9.28189"
       id="path50205-1-3" />
    <path
       style="display:inline;fill:none;stroke:#98b32a;stroke-width:1.39601;stroke-linecap:butt;stroke-linejoin:miter;stroke-miterlimit:4;stroke-dasharray:none;stroke-opacity:1"
       d="m 502.28186,432.5965 c -5.34569,18.29765 -26.62016,21.76654 -26.62016,21.76654 0,0 -13.61794,-9.6016 -1.19896,-39.46213"
       id="path50207-9-3" />
    <path
       style="display:inline;fill:none;stroke:#98b32a;stroke-width:1.39601;stroke-linecap:butt;stroke-linejoin:miter;stroke-miterlimit:4;stroke-dasharray:none;stroke-opacity:1"
       d="m 490.75736,435.50429 c -1.23814,9.92053 -15.09566,18.85875 -15.09566,18.85875 0,0 -4.24485,-10.30851 12.98857,-39.17308"
       id="path50209-3-3" />
    <circle
       style="display:inline;fill:#d91b34;fill-opacity:1;stroke:none;stroke-width:1.0354;stroke-miterlimit:4;stroke-dasharray:none;stroke-opacity:1"
       id="path51069-5-2"
       cx="631.89832"
       cy="231.38094"
       transform="rotate(21.150277)"
       r="1.5531086" />
    <circle
       style="display:inline;fill:#d91b34;fill-opacity:1;stroke:none;stroke-width:1.67109;stroke-miterlimit:4;stroke-dasharray:none;stroke-opacity:1"
       id="path51069-1-8-2"
       cx="588.5119"
       cy="230.01311"
       transform="rotate(21.150277)"
       r="2.5066304" />
    <circle
       style="display:inline;fill:#d91b34;fill-opacity:1;stroke:none;stroke-width:2.61474;stroke-miterlimit:4;stroke-dasharray:none;stroke-opacity:1"
       id="path51069-1-2-6-3"
       cx="614.86841"
       cy="227.90422"
       transform="rotate(21.150277)"
       r="3.9221029" />
    <circle
       style="display:inline;fill:#d91b34;fill-opacity:1;stroke:none;stroke-width:2.04766;stroke-miterlimit:4;stroke-dasharray:none;stroke-opacity:1"
       id="path51069-1-2-1-9-9"
       cx="625.41534"
       cy="221.14696"
       transform="rotate(21.150277)"
       r="3.0714872" />
    <circle
       style="display:inline;fill:#d91b34;fill-opacity:1;stroke:none;stroke-width:1.51167;stroke-miterlimit:4;stroke-dasharray:none;stroke-opacity:1"
       id="path51069-1-2-1-6-5-0"
       cx="605.716"
       cy="209.52042"
       transform="rotate(21.150277)"
       r="2.2675071" />
    <circle
       style="display:inline;fill:#d91b34;fill-opacity:1;stroke:none;stroke-width:2.5106;stroke-miterlimit:4;stroke-dasharray:none;stroke-opacity:1"
       id="path51069-1-2-1-6-2-7-4"
       cx="592.81879"
       cy="214.27594"
       transform="rotate(21.150277)"
       r="3.7658985" />
  </g>
  <g
     inkscape:groupmode="layer"
     id="layer7"
     inkscape:label="water"
     style="display:inline">
    <path
       id="path3692-5"
       style="display:inline;fill:#1d5072;fill-opacity:1;stroke:none;stroke-width:40.4282;stroke-miterlimit:4;stroke-dasharray:none;stroke-opacity:1"
       d="m 47.376161,360.59441 c -7.043023,0.16294 -12.088639,0.72039 -15.888802,1.39142 A 370.3217,377.63622 0 0 0 29.356602,392.36378 370.3217,377.63622 0 0 0 399.6783,770 370.3217,377.63622 0 0 0 770,392.36378 a 370.3217,377.63622 0 0 0 -0.68615,-21.862 C 740.46673,404.82204 691.31847,448.37507 621.3963,458.93851 502.06585,476.96628 467.81384,446.54587 254.56592,394.71603 134.61396,365.56175 75.841931,359.93587 47.376161,360.59441 Z" />
    <path
       id="path3692-6"
       style="display:inline;fill:#15415f;fill-opacity:1;stroke:none;stroke-width:40;stroke-miterlimit:4;stroke-dasharray:none;stroke-opacity:1"
       d="M 115.31192,422.50781 C 72.447891,422.75387 46.133405,433.73792 32.392,441.85547 A 370,370 0 0 0 246.66543,736.92578 L 603.15372,708.48242 A 370,370 0 0 0 767.5209,426.26172 C 721.43085,472.239 592.44278,504.5293 592.44278,504.5293 c 0,0 -107.5195,42.98899 -307.33985,-41.62696 -73.43885,-31.09842 -129.01189,-40.62862 -169.79101,-40.39453 z" />
    <path
       id="path3692-7"
       style="display:inline;fill:#143851;fill-opacity:1;stroke:none;stroke-width:40;stroke-miterlimit:4;stroke-dasharray:none;stroke-opacity:1"
       d="m 543.42924,529.33941 c -215.61125,-2.48622 -362.9655,49.66373 -442.02148,87.99414 a 370,370 0 0 0 267.10156,149.38867 l 105.75391,-6.5332 A 370,370 0 0 0 735.74956,551.82183 c -28.03766,-9.29733 -67.4826,-16.30884 -122.33594,-19.82031 -24.07004,-1.54086 -47.39865,-2.40167 -69.98438,-2.66211 z" />
    <path
       id="path3692-64"
       style="display:inline;fill:#0e2f45;fill-opacity:1;stroke:none;stroke-width:40;stroke-miterlimit:4;stroke-dasharray:none;stroke-opacity:1"
       d="M 559.29297,564.23633 C 334.35626,561.6232 193.47444,626.97993 137.5,659.42578 A 370,370 0 0 0 400,770 370,370 0 0 0 721.25391,581.74023 c -24.13413,-7.0429 -56.79862,-12.33475 -100.30469,-15.14062 -21.20579,-1.36764 -41.75815,-2.13212 -61.65625,-2.36328 z" />
  </g>
  <g
     inkscape:groupmode="layer"
     id="layer11"
     inkscape:label="flower3"
     style="display:inline">
    <path
       style="fill:none;stroke:#98b32a;stroke-width:2.46287;stroke-linecap:butt;stroke-linejoin:miter;stroke-miterlimit:4;stroke-dasharray:none;stroke-opacity:1"
       d="m 319.64352,567.26832 c 0,0 -6.23175,38.24694 30.84257,38.95992 37.07431,0.71296 45.62994,-27.09278 44.91696,-34.93542"
       id="path50205" />
    <path
       style="fill:none;stroke:#98b32a;stroke-width:2.46287;stroke-linecap:butt;stroke-linejoin:miter;stroke-miterlimit:4;stroke-dasharray:none;stroke-opacity:1"
       d="m 383.2826,554.89456 c 2.85185,33.50948 -29.94465,52.75961 -29.94465,52.75961 0,0 -28.51872,-7.12967 -27.09277,-64.1671"
       id="path50207" />
    <path
       style="fill:none;stroke:#98b32a;stroke-width:2.46287;stroke-linecap:butt;stroke-linejoin:miter;stroke-miterlimit:4;stroke-dasharray:none;stroke-opacity:1"
       d="m 366.17137,567.01501 c 4.2778,17.11122 -12.83342,40.63916 -12.83342,40.63916 0,0 -13.54639,-14.25935 -3.56484,-72.72271"
       id="path50209" />
    <circle
       style="fill:#d91b34;fill-opacity:1;stroke:none;stroke-width:1.82668;stroke-miterlimit:4;stroke-dasharray:none;stroke-opacity:1"
       id="path51069"
       cx="396.27402"
       cy="571.04883"
       r="2.7400346" />
    <circle
       style="display:inline;fill:#d91b34;fill-opacity:1;stroke:none;stroke-width:2.94818;stroke-miterlimit:4;stroke-dasharray:none;stroke-opacity:1"
       id="path51069-1"
       cx="319.73071"
       cy="568.63568"
       r="4.4222627" />
    <circle
       style="display:inline;fill:#d91b34;fill-opacity:1;stroke:none;stroke-width:4.613;stroke-miterlimit:4;stroke-dasharray:none;stroke-opacity:1"
       id="path51069-1-2"
       cx="366.22943"
       cy="564.9151"
       r="6.9194765" />
    <circle
       style="display:inline;fill:#d91b34;fill-opacity:1;stroke:none;stroke-width:3.61254;stroke-miterlimit:4;stroke-dasharray:none;stroke-opacity:1"
       id="path51069-1-2-1"
       cx="384.83667"
       cy="552.99377"
       r="5.4187975" />
    <circle
       style="display:inline;fill:#d91b34;fill-opacity:1;stroke:none;stroke-width:2.66693;stroke-miterlimit:4;stroke-dasharray:none;stroke-opacity:1"
       id="path51069-1-2-1-6"
       cx="350.08258"
       cy="532.48187"
       r="4.0003953" />
    <circle
       style="display:inline;fill:#d91b34;fill-opacity:1;stroke:none;stroke-width:4.42927;stroke-miterlimit:4;stroke-dasharray:none;stroke-opacity:1"
       id="path51069-1-2-1-6-2"
       cx="327.32898"
       cy="540.87164"
       r="6.6438966" />
    <path
       style="display:inline;fill:#98b32a;fill-opacity:1;stroke:none;stroke-width:0.785705px;stroke-linecap:butt;stroke-linejoin:miter;stroke-opacity:1"
       d="m 352.31521,635.33456 c 0,0 -20.11684,-24.8426 -19.36915,-11.42806 0.74766,13.41451 2.03649,12.38819 2.03649,12.38819 0,0 -2.14938,2.4413 17.33266,-0.96013 z"
       id="path52104-6" />
    <path
       id="path3692-64-8"
       style="display:inline;fill:#98b32a;fill-opacity:1;stroke:none;stroke-width:40;stroke-miterlimit:4;stroke-dasharray:none;stroke-opacity:1"
       d="m 350.875,605.19141 -30.35938,155.70117 a 370,370 0 0 0 15.98633,2.79297 l 20.125,-157.42578 z" />
  </g>
  <g
     inkscape:groupmode="layer"
     id="layer10"
     inkscape:label="flower2"
     style="display:inline">
    <path
       style="fill:#c4d134;fill-opacity:1;stroke:none;stroke-width:0.452734px;stroke-linecap:butt;stroke-linejoin:miter;stroke-opacity:1"
       d="m 583.55565,502.90646 c 0,0 -1.76884,-9.07112 12.229,-8.68292 10.18277,0.28241 7.87951,2.21051 7.87951,2.21051 0,0 -1.70875,11.7307 -20.10851,6.47241 z"
       id="path36671-02"
       sodipodi:nodetypes="cscc" />
    <path
       style="fill:#d9e27b;fill-opacity:1;stroke:none;stroke-width:0.484588px;stroke-linecap:butt;stroke-linejoin:miter;stroke-opacity:1"
       d="m 584.07122,522.48974 c 0,0 -2.64645,-9.53169 12.32293,-10.28858 10.88952,-0.55062 8.59306,1.69953 8.59306,1.69953 0,0 -0.8419,12.66064 -20.91599,8.58905 z"
       id="path36671-9-6"
       sodipodi:nodetypes="cscc" />
    <path
       style="fill:#c4d134;fill-opacity:1;stroke:none;stroke-width:0.484588px;stroke-linecap:butt;stroke-linejoin:miter;stroke-opacity:1"
       d="m 583.65452,545.25485 c 0,0 -4.5259,-8.79618 9.9783,-12.5755 10.55113,-2.74927 8.75915,-0.0799 8.75915,-0.0799 0,0 1.74521,12.568 -18.73745,12.65536 z"
       id="path36671-2-4"
       sodipodi:nodetypes="cscc" />
    <path
       style="fill:#c4d134;fill-opacity:1;stroke:none;stroke-width:0.54043px;stroke-linecap:butt;stroke-linejoin:miter;stroke-opacity:1"
       d="m 583.73154,586.09772 c 0,0 -5.04746,-9.80981 11.12815,-14.02464 11.767,-3.0661 9.76852,-0.0891 9.76852,-0.0891 0,0 1.94632,14.01629 -20.89667,14.11372 z"
       id="path36671-4-4"
       sodipodi:nodetypes="cscc" />
    <path
       style="fill:#d9e27b;fill-opacity:1;stroke:none;stroke-width:0.524562px;stroke-linecap:butt;stroke-linejoin:miter;stroke-opacity:1"
       d="m 583.44377,608.09527 c 0,0 -2.78179,-10.34064 13.4285,-11.02979 11.79221,-0.50133 9.28683,1.9144 9.28683,1.9144 0,0 -1.02142,13.69726 -22.71533,9.11539 z"
       id="path36671-3-7"
       sodipodi:nodetypes="cscc" />
    <path
       style="fill:#c4d134;fill-opacity:1;stroke:none;stroke-width:0.512509px;stroke-linecap:butt;stroke-linejoin:miter;stroke-opacity:1"
       d="m 583.69303,563.83163 c 0,0 -4.78668,-9.30299 10.55322,-13.30008 11.15907,-2.90769 9.26384,-0.0845 9.26384,-0.0845 0,0 1.84576,13.29214 -19.81706,13.38454 z"
       id="path36671-21-6"
       sodipodi:nodetypes="cscc" />
    <path
       style="fill:#c4d134;fill-opacity:1;stroke:none;stroke-width:0.452734px;stroke-linecap:butt;stroke-linejoin:miter;stroke-opacity:1"
       d="m 582.39345,502.90646 c 0,0 1.76883,-9.07112 -12.229,-8.68292 -10.18277,0.28241 -7.87951,2.21051 -7.87951,2.21051 0,0 1.70874,11.7307 20.10851,6.47241 z"
       id="path36671-09-5"
       sodipodi:nodetypes="cscc" />
    <path
       style="fill:#d9e27b;fill-opacity:1;stroke:none;stroke-width:0.484588px;stroke-linecap:butt;stroke-linejoin:miter;stroke-opacity:1"
       d="m 582.02477,524.47888 c 0,0 4.52591,-8.79618 -9.9783,-12.5755 -10.55113,-2.74928 -8.75915,-0.0799 -8.75915,-0.0799 0,0 -1.74521,12.568 18.73745,12.65537 z"
       id="path36671-9-7-7"
       sodipodi:nodetypes="cscc" />
    <path
       style="fill:#c4d134;fill-opacity:1;stroke:none;stroke-width:0.484588px;stroke-linecap:butt;stroke-linejoin:miter;stroke-opacity:1"
       d="m 582.29458,545.25485 c 0,0 4.5259,-8.79618 -9.9783,-12.5755 -10.55113,-2.74927 -8.75915,-0.0799 -8.75915,-0.0799 0,0 -1.74521,12.568 18.73745,12.65536 z"
       id="path36671-2-6-4"
       sodipodi:nodetypes="cscc" />
    <path
       style="fill:#c4d134;fill-opacity:1;stroke:none;stroke-width:0.54043px;stroke-linecap:butt;stroke-linejoin:miter;stroke-opacity:1"
       d="m 582.21756,586.09772 c 0,0 5.04746,-9.80981 -11.12815,-14.02464 -11.767,-3.0661 -9.76852,-0.0891 -9.76852,-0.0891 0,0 -1.94632,14.01629 20.89667,14.11372 z"
       id="path36671-4-1-4"
       sodipodi:nodetypes="cscc" />
    <path
       style="fill:#d9e27b;fill-opacity:1;stroke:none;stroke-width:0.524562px;stroke-linecap:butt;stroke-linejoin:miter;stroke-opacity:1"
       d="m 582.50533,608.09527 c 0,0 2.78178,-10.34064 -13.4285,-11.02979 -11.79221,-0.50133 -9.28683,1.9144 -9.28683,1.9144 0,0 1.02141,13.69726 22.71533,9.11539 z"
       id="path36671-3-0-6"
       sodipodi:nodetypes="cscc" />
    <path
       style="fill:#c4d134;fill-opacity:1;stroke:none;stroke-width:0.512509px;stroke-linecap:butt;stroke-linejoin:miter;stroke-opacity:1"
       d="m 582.25607,563.83163 c 0,0 4.78668,-9.30299 -10.55322,-13.30008 -11.15907,-2.90769 -9.26384,-0.0845 -9.26384,-0.0845 0,0 -1.84576,13.29214 19.81706,13.38454 z"
       id="path36671-21-9-2"
       sodipodi:nodetypes="cscc" />
    <path
       style="fill:#c4d134;fill-opacity:1;stroke:none;stroke-width:0.54043px;stroke-linecap:butt;stroke-linejoin:miter;stroke-opacity:1"
       d="m 582.21756,633.14555 c 0,0 5.04746,-9.80982 -11.12815,-14.02465 -11.767,-3.0661 -9.76853,-0.0891 -9.76853,-0.0891 0,0 -1.94631,14.01629 20.89668,14.11373 z"
       id="path36671-0-7-4"
       sodipodi:nodetypes="cscc" />
    <rect
       style="fill:#c4d134;fill-opacity:1;stroke:none;stroke-width:0.909986;stroke-miterlimit:4;stroke-dasharray:none;stroke-opacity:1"
       id="rect34942-6"
       width="3.3779538"
       height="186.64668"
       x="580.88696"
       y="486.33472"
       ry="1.8298695" />
    <path
       style="fill:#d9581b;fill-opacity:1;stroke:none;stroke-width:0.55736px;stroke-linecap:butt;stroke-linejoin:miter;stroke-opacity:1"
       d="m 555.53139,457.60958 c 0,0 -2.05757,19.07057 14.15427,27.9626 16.21187,8.89203 24.68872,-1.73412 24.68872,-1.73412 0,0 11.09072,-4.03515 7.71306,-31.60868 -1.68882,-13.78677 -3.13484,-10.59228 -6.5125,-6.13679 -3.37765,4.45547 -8.68693,10.17194 -8.68693,10.17194 l -4.89835,-16.81313 -9.57001,17.48565 -12.38473,-15.46808 z"
       id="path38056-1"
       sodipodi:nodetypes="cscssccccc" />
    <circle
       style="fill:#d9581b;fill-opacity:1;stroke:none;stroke-width:1.35994;stroke-miterlimit:4;stroke-dasharray:none;stroke-opacity:1"
       id="path39953-4"
       cx="570.24127"
       cy="443.84299"
       r="2.9193683" />
    <ellipse
       style="fill:#d9581b;fill-opacity:1;stroke:none;stroke-width:1.16567;stroke-miterlimit:4;stroke-dasharray:none;stroke-opacity:1"
       id="path39955-5"
       cx="590.21692"
       cy="445.13699"
       rx="2.1610909"
       ry="2.3885741" />
  </g>
  <g
     inkscape:groupmode="layer"
     id="layer6"
     inkscape:label="grass"
     style="display:inline">
    <rect
       style="fill:#54612a;fill-opacity:1;stroke:none;stroke-width:1.09558"
       id="rect14458-8"
       width="10.535777"
       height="36.214821"
       x="554.349"
       y="503.00632"
       ry="5.5715108"
       transform="rotate(-19.935216)" />
    <rect
       style="fill:#54612a;fill-opacity:1;stroke:none;stroke-width:1.09558"
       id="rect14458-8-0"
       width="10.535777"
       height="36.214821"
       x="541.42426"
       y="509.47977"
       ry="5.5715108"
       transform="rotate(-19.935216)" />
    <rect
       style="display:inline;fill:#54612a;fill-opacity:1;stroke:none;stroke-width:1.09558"
       id="rect14458-8-3"
       width="10.535777"
       height="36.214821"
       x="-454.7468"
       y="664.86334"
       ry="5.5715108"
       transform="rotate(-87.893444)" />
    <rect
       style="display:inline;fill:#54612a;fill-opacity:1;stroke:none;stroke-width:1.09558"
       id="rect14458-8-0-5"
       width="10.535777"
       height="36.214821"
       x="-475.35492"
       y="664.19861"
       ry="5.5715108"
       transform="rotate(-87.893444)" />
    <path
       id="path3692-60"
       style="display:inline;fill:#54612a;fill-opacity:1;stroke:none;stroke-width:40;stroke-miterlimit:4;stroke-dasharray:none;stroke-opacity:1"
       d="m 754.0918,290.61133 c -11.60551,0.1932 -23.12866,0.46456 -34.26563,0.91406 -85.28592,3.4422 -62.8418,146.86914 -62.84179,146.86914 0,0 49.37725,160.63396 -138.02735,203.08789 C 331.55242,683.93634 323.69418,628.86374 169.95508,540.51367 124.70302,514.50843 85.785356,513.60985 53.261719,525.0625 A 370,370 0 0 0 388.78125,773.05469 h 26.4375 A 370,370 0 0 0 772,404 370,370 0 0 0 754.0918,290.61133 Z" />
  </g>
  <g
     inkscape:groupmode="layer"
     id="layer3"
     inkscape:label="fox"
     style="display:inline">
    <path
       id="path852"
       style="fill:#ef7838;fill-opacity:1;stroke-width:0.702089"
       d="m 515.74296,631.9254 c -2.33995,26.88994 -31.24623,50.9433 -73.59039,53.61761 -42.34417,2.67431 -66.46556,1.77178 -68.16689,-25.16612 -1.70129,-26.93789 8.64623,-53.74068 50.99038,-56.41499 21.17209,-1.33717 51.78399,16.31839 69.41808,20.93858 17.63409,4.62022 22.29035,-3.79492 21.34882,7.02492 z"
       sodipodi:nodetypes="ssssss" />
    <path
       style="fill:#d9581b;fill-opacity:1;stroke:none;stroke-width:0.693633;stroke-linecap:butt;stroke-linejoin:miter;stroke-miterlimit:4;stroke-dasharray:none;stroke-opacity:1"
       d="m 400.73535,639.75535 c 0.0926,-5.31433 23.70872,-22.752 52.13035,-8.64549 28.4217,14.10652 27.82888,18.78192 59.42298,12.81114 31.59408,-5.97076 25.29572,-35.38837 25.29572,-35.38837 0,0 19.96016,23.01309 10.97091,49.42083 -3.28607,9.6536 -8.42466,17.27942 -12.44567,20.80365 -4.02098,3.52423 -13.451,10.54052 -21.64594,14.37089 -16.38984,7.66079 -49.04097,9.68965 -70.43712,8.39067 -21.39617,-1.29891 -47.68488,-9.19585 -69.32181,-28.3688 -21.63692,-19.17299 -11.39401,-34.45159 -6.07467,-40.74897 6.50318,-7.69895 14.46395,-9.60953 14.46395,-9.60953 0,0 -4.30758,8.43867 -6.74028,18.24015 -0.93162,3.75353 -1.23227,8.34677 -0.18289,11.09729 1.34972,3.53772 0.51755,3.46174 5.30526,8.13273 21.54405,21.01889 14.35325,3.54428 15.32753,-5.88732 0,0 0.50102,-10.78821 3.93168,-14.61887 z"
       id="path2295"
       sodipodi:nodetypes="csscsssssscssscc" />
    <path
       style="fill:#ef7838;fill-opacity:1;stroke:none;stroke-width:0.553699px;stroke-linecap:butt;stroke-linejoin:miter;stroke-opacity:1"
       d="m 519.7718,575.24519 c 0,0 -9.7325,-1.53816 5.3161,-33.28913 3.76214,-7.93774 15.9074,-16.00544 18.90312,-15.17628 1.49788,0.41459 0.80822,2.09737 1.30617,5.67707 0.49793,3.57974 2.18344,9.05637 3.10406,11.81123 1.84122,5.50976 4.03947,15.45228 4.33812,21.55621 0.29861,6.10394 -3.60203,10.9619 -5.23413,13.57365 -6.5283,10.44706 -17.35406,11.11635 -17.35406,11.11635 z"
       id="path9213"
       sodipodi:nodetypes="csssssscc" />
    <path
       style="fill:#ffdab3;fill-opacity:1;stroke:none;stroke-width:0.370242px;stroke-linecap:butt;stroke-linejoin:miter;stroke-opacity:1"
       d="m 530.13072,576.20724 c 0,0 -6.02827,1.81192 -1.91016,-24.06241 1.02956,-6.4686 6.04168,-14.5785 7.95147,-14.89577 1.90976,-0.31722 5.77366,5.96867 7.07889,9.46017 1.58741,4.24638 2.74656,8.56719 3.46436,12.69346 0.8501,4.88655 -0.1082,10.01692 -0.68167,12.2608 -2.29371,8.9755 -7.39637,11.82487 -7.39637,11.82487 z"
       id="path9213-8"
       sodipodi:nodetypes="cssssscc" />
    <path
       style="fill:#d9581b;fill-opacity:1;stroke:none;stroke-width:0.553699px;stroke-linecap:butt;stroke-linejoin:miter;stroke-opacity:1"
       d="m 519.7718,575.24519 c 0,0 -9.7325,-1.53816 5.3161,-33.28913 3.76214,-7.93774 15.8296,-16.07404 18.82532,-15.24485 1.4979,0.41459 1.25926,0.43902 0.85841,1.47617 -0.40092,1.03718 -3.21419,3.52307 -5.1248,5.71085 -2.79204,3.19718 -3.03397,3.77496 -5.80214,10.17272 -2.76818,6.39774 -7.04956,21.5774 -6.90025,24.62933 0.29861,6.10395 14.4211,13.35641 12.78898,15.9682 -6.52829,10.44705 -9.58224,5.84581 -9.58224,5.84581 z"
       id="path9213-9"
       sodipodi:nodetypes="cssssssscc" />
    <path
       style="fill:#ef7838;fill-opacity:1;stroke:none;stroke-width:0.553699px;stroke-linecap:butt;stroke-linejoin:miter;stroke-opacity:1"
       d="m 480.40016,572.9913 c 0,0 9.46166,-2.7504 -9.46201,-32.35582 -4.73089,-7.40134 -17.79467,-13.87693 -20.66229,-12.67744 -1.43381,0.59975 -0.53794,2.18237 -0.58152,5.79631 -0.0436,3.61392 -1.02671,9.2591 -1.59341,12.10789 -1.13341,5.69763 -2.06332,15.83769 -1.59166,21.9307 0.4717,6.093 4.95256,10.42163 6.90028,12.80731 7.79077,9.5427 18.61474,8.84464 18.61474,8.84464 z"
       id="path9213-7"
       sodipodi:nodetypes="csssssscc" />
    <path
       style="fill:#ffdab3;fill-opacity:1;stroke:none;stroke-width:0.370242px;stroke-linecap:butt;stroke-linejoin:miter;stroke-opacity:1"
       d="m 470.24461,575.24893 c 0,0 6.20831,1.03913 -1.1324,-24.11151 -1.83518,-6.28766 -7.82783,-13.70256 -9.76232,-13.77703 -1.93452,-0.0745 -4.97685,6.64767 -5.83244,10.27563 -1.04057,4.41231 -1.64686,8.84465 -1.83988,13.02847 -0.22853,4.95464 1.36768,9.92369 2.21883,12.07758 3.40471,8.61563 8.82528,10.80039 8.82528,10.80039 z"
       id="path9213-8-6"
       sodipodi:nodetypes="cssssscc" />
    <path
       style="display:inline;fill:#ffdab3;fill-opacity:1;stroke:none;stroke-width:0.370242px;stroke-linecap:butt;stroke-linejoin:miter;stroke-opacity:1"
       d="m 468.96841,581.40102 c 0,0 6.20831,1.03913 -1.1324,-24.11151 -1.83518,-6.28766 -7.82783,-13.70256 -9.76232,-13.77703 -1.93452,-0.0745 -4.97685,6.64767 -5.83244,10.27563 -1.04057,4.41231 -1.64686,8.84465 -1.83988,13.02847 -0.22853,4.95464 1.36768,9.92369 2.21883,12.07758 3.40471,8.61563 8.82528,10.80039 8.82528,10.80039 z"
       id="path9213-8-6-2"
       sodipodi:nodetypes="cssssscc" />
    <path
       style="fill:#d9581b;fill-opacity:1;stroke:none;stroke-width:0.553699px;stroke-linecap:butt;stroke-linejoin:miter;stroke-opacity:1"
       d="m 480.40016,572.9913 c 0,0 9.46166,-2.7504 -9.46201,-32.35582 -4.73089,-7.40134 -17.72612,-13.95472 -20.59371,-12.75525 -1.43384,0.59975 -1.19404,0.59396 -0.66584,1.57246 0.52815,0.97847 3.63187,3.09063 5.80252,5.02067 3.17214,2.82049 3.48478,3.36324 7.03589,9.36191 3.55109,5.99864 9.70822,20.51903 9.94406,23.56552 0.4717,6.09299 -12.62608,15.06462 -10.67837,17.45032 7.7908,9.54269 10.24159,4.59378 10.24159,4.59378 z"
       id="path9213-9-0"
       sodipodi:nodetypes="cssssssscc" />
    <path
       id="path5781"
       style="display:inline;fill:#ef7838;fill-opacity:1;stroke-width:0.680194"
       d="m 552.02436,601.57067 c 0.68597,10.86135 -5.12201,11.90879 -14.58734,19.65276 -9.46535,7.74395 -18.96887,25.05305 -34.09846,26.00857 -15.12954,0.95554 -24.20575,-12.02047 -34.57014,-18.51206 -10.36439,-6.49158 -25.63613,-9.36732 -26.32211,-20.22868 -0.34298,-5.43069 0.90232,-10.60489 3.43603,-15.34134 2.53367,-4.73645 6.35576,-9.03509 11.16629,-12.71461 4.81053,-3.67954 10.60954,-6.73995 17.09713,-8.99994 6.48757,-2.26 13.6637,-3.71951 21.22848,-4.19727 30.25917,-1.91109 55.27818,12.60985 56.65012,34.33257 z"
       sodipodi:nodetypes="ssssssssss" />
    <path
       id="path5781-5"
       style="display:inline;fill:#d9581b;fill-opacity:1;stroke-width:0.680194"
       d="m 495.37412,567.23788 c -5.18216,0.32728 -10.17462,1.12556 -14.8956,2.31603 4.10115,11.39272 26.16934,73.22541 22.42411,75.79398 2.40113,0.20577 6.4267,0.59912 6.4267,0.59912 0,0 -1.45676,-44.01349 10.02009,-76.60001 -7.29725,-1.87505 -15.42646,-2.64905 -23.9753,-2.10912 z m 7.52851,78.11001 c -1.69919,-0.14558 -2.71846,-0.21253 -0.3313,0.0887 0.1302,0.0164 0.23635,-0.0231 0.3313,-0.0887 z" />
    <path
       id="path5781-2"
       style="display:inline;fill:#ffdab3;fill-opacity:1;stroke-width:0.680194"
       d="m 461.67613,600.94323 c -7.66814,0.47323 -14.89551,2.66041 -19.23271,4.2246 -0.0579,1.10056 -0.0671,2.20787 0.003,3.32396 0.68596,10.86137 15.95685,13.73672 26.32123,20.22828 10.31973,6.46362 19.36448,19.35057 34.37698,18.51839 -2.29524,-5.02284 -6.52611,-14.47739 -13.80538,-31.61981 -5.35618,-12.61372 -16.90551,-15.3395 -27.66355,-14.67542 z" />
    <path
       id="path36721"
       style="display:inline;fill:#ffdab3;fill-opacity:1;stroke:none;stroke-width:0.587579px;stroke-linecap:butt;stroke-linejoin:miter;stroke-opacity:1"
       d="m 512.91546,643.83182 c 0,0 9.99164,-3.88081 14.86567,-6.46345 4.87401,-2.58269 -4.56228,-0.19935 -4.56228,-0.19935 0,0 4.34762,-3.19937 7.4124,-3.55539 3.06475,-0.35643 -1.75128,-2.00175 -1.75128,-2.00175 0,0 3.51792,-3.47195 6.73433,-4.00006 3.21639,-0.52812 -1.60992,-2.33562 -1.60992,-2.33562 0,0 13.08712,-3.75133 9.49591,-4.012 -3.59119,-0.26065 1.76836,-2.87398 1.76836,-2.87398 0,0 -6.19089,-0.25894 -1.51791,-0.87905 4.67297,-0.62014 11.27785,-1.52471 8.15173,-2.13973 -3.12612,-0.615 -0.34586,-2.90292 -0.34586,-2.90292 l -2.27602,-0.0187 4.78202,-4.03921 c 0,0 -3.05458,0.51787 -1.57925,-1.85014 1.47531,-2.36798 -0.459,-4.98973 -0.459,-4.98973 l 2.44547,-4.7225 c 0,0 4.45206,-2.95735 0.5247,-1.98301 l -3.92733,0.97436 c -10.55728,18.82074 -23.66456,32.36605 -38.15174,47.9923 z m 29.50793,-48.05254 c -0.9453,0.0586 -1.89628,0.1392 -2.8494,0.24844 -10.69783,1.22504 -21.45096,5.91565 -24.02283,19.2275 -3.00892,15.57381 -4.96704,24.92494 -6.22161,30.69181 11.77459,-4.30459 19.95699,-18.05501 28.10737,-24.72314 9.46534,-7.74401 15.2736,-8.79127 14.58762,-19.65264 -0.12379,-1.96022 -0.45269,-3.87271 -0.95734,-5.73168 -2.6941,-0.18206 -5.62919,-0.24478 -8.64381,-0.0602 z"
       sodipodi:nodetypes="cscscscscsscccsccsccscscsscs" />
    <path
       id="path23722-5"
       style="fill:#000000;fill-opacity:1;stroke-width:1.07708"
       d="m 489.92348,623.19215 c 0.32225,5.10259 -3.17234,-0.36233 -7.36497,-0.0976 -4.19258,0.26478 -9.50054,5.79023 -9.82279,0.68767 -0.32227,-5.10255 4.82024,-9.08489 9.01284,-9.34969 4.19262,-0.26479 7.85266,3.65704 8.17492,8.75959 z"
       sodipodi:nodetypes="sssss" />
    <path
       id="path24492"
       style="fill:#000000;fill-opacity:1;stroke-width:1.13329"
       d="m 489.50217,625.51333 c -1.15595,1.98137 -4.17786,3.74678 -6.34711,3.88379 -2.16923,0.13699 -6.01394,-2.53064 -7.65991,-3.28904 -2.20183,-1.01447 4.81282,-7.30671 6.98207,-7.4437 2.16926,-0.13701 8.57651,4.1895 7.02495,6.84895 z"
       sodipodi:nodetypes="sssss" />
    <ellipse
       style="fill:#fffbf6;fill-opacity:1;stroke:none;stroke-width:2.29488;stroke-miterlimit:4;stroke-dasharray:none"
       id="path26527"
       cx="446.72797"
       cy="653.46924"
       rx="2.9588964"
       ry="2.8901386"
       transform="rotate(-3.613815)" />
    <path
       id="path23722-5-0"
       style="fill:#000000;fill-opacity:1;stroke-width:1.03925"
       d="m 516.54775,620.77337 c 0.30005,4.7506 3.10398,-0.71994 7.29659,-0.9847 4.19261,-0.26481 10.11634,4.82966 9.81629,0.079 -0.30001,-4.7506 -5.87211,-8.44035 -10.06473,-8.17555 -4.19261,0.26479 -7.34817,4.3306 -7.04815,9.08119 z"
       sodipodi:nodetypes="sssss" />
    <path
       id="path24492-4"
       style="fill:#000000;fill-opacity:1;stroke-width:1.09351"
       d="m 517.2478,622.86545 c 1.38773,1.68908 4.60095,2.9521 6.77016,2.81511 2.16926,-0.13699 5.66041,-3.0672 7.20164,-3.9674 2.06172,-1.20419 -5.66346,-6.16204 -7.83272,-6.02505 -2.16922,0.13701 -8.0018,4.9102 -6.13908,7.17734 z"
       sodipodi:nodetypes="sssss" />
    <ellipse
       style="fill:#fffbf6;fill-opacity:1;stroke:none;stroke-width:2.29488;stroke-miterlimit:4;stroke-dasharray:none"
       id="path26527-0"
       cx="-479.38187"
       cy="652.73767"
       rx="2.9588964"
       ry="2.8901386"
       transform="matrix(-0.99801156,0.06303115,0.06303115,0.99801156,0,0)" />
    <ellipse
       style="fill:#000000;fill-opacity:1;stroke:none;stroke-width:0.958766;stroke-miterlimit:4;stroke-dasharray:none"
       id="path20332"
       cx="449.88895"
       cy="689.7373"
       rx="6.8617668"
       ry="3.2317948"
       transform="matrix(0.99550662,-0.09469197,0.08358258,0.99650085,0,0)" />
    <path
       id="path2295-7"
       style="fill:#ac3f0b;fill-opacity:1;stroke:none;stroke-width:0.693633;stroke-linecap:butt;stroke-linejoin:miter;stroke-miterlimit:4;stroke-dasharray:none;stroke-opacity:1"
       d="m 537.5844,608.53263 c 0,0 6.2977,29.4168 -25.29638,35.38754 -19.64161,3.71194 -26.84526,3.30368 -36.31215,-0.92179 l 14.14038,10.28115 -22.0145,8.98834 15.9273,2.99046 -13.65801,10.48644 38.69686,3.12698 -29.45686,12.47822 28.57941,4.18939 c 2.27064,-0.73498 4.38982,-1.5318 6.27288,-2.41196 8.19493,-3.83039 17.62473,-10.84707 21.6457,-14.37133 4.02099,-3.52422 9.15956,-11.14992 12.44566,-20.80352 8.98921,-26.40776 -10.97029,-49.41992 -10.97029,-49.41992 z"
       sodipodi:nodetypes="csccccccccsssc" />
    <path
       style="fill:#ef7838;fill-opacity:1;stroke:none;stroke-width:0.895757px;stroke-linecap:butt;stroke-linejoin:miter;stroke-opacity:1"
       d="m 442.00673,610.65341 0.70887,-8.18963 -2.51776,1.73545 -0.7704,-2.49115 -3.3036,1.41417 -0.98949,-3.90089 -4.22292,3.73466 -3.62558,-2.49582 -3.57623,2.20756 -2.34521,-1.83358 -2.34262,2.12965 -4.07229,-1.72452 -3.20487,4.16578 -3.10094,-2.03353 -2.77372,3.1477 -3.84116,-1.98681 -1.50893,3.56325 -5.02802,-1.1687 -3.88273,5.19944 -3.70088,0.23373 -2.46468,4.11904 -3.423,0.71161 1.07348,5.60055 -6.29629,1.91291 1.43876,7.09275 -3.46715,3.93463 0.46485,3.4386 -3.22045,3.91906 4.0437,5.19425 16.30277,-19.43107 18.65643,-9.67344 16.84755,-7.80762 z"
       id="path21707" />
    <path
       style="fill:#d9581b;fill-opacity:1;stroke:none;stroke-width:0.895757px;stroke-linecap:butt;stroke-linejoin:miter;stroke-opacity:1"
       d="m 517.05091,569.58635 -3.19121,-4.44303 3.36845,-1.57515 -0.44931,-3.19187 3.08927,-4.03462 -2.3465,-3.81517 2.48936,-1.76734 -0.71163,-3.42301 3.4373,-2.44649 0.67397,-6.97849 2.71399,-0.17141 0.25972,-3.73205 4.38653,-1.14402 1.14664,-3.41651 2.86854,0.31423 2.14911,-3.2321 2.40622,0.83887 2.86593,-3.64893 1.10379,1.78811 3.80868,-0.48826 -3.69052,4.3203 -21.07439,21.27171 z"
       id="path25825"
       sodipodi:nodetypes="ccccccccccccccccccccccc" />
    <path
       style="fill:#d9581b;fill-opacity:1;stroke:none;stroke-width:1.01776px;stroke-linecap:butt;stroke-linejoin:miter;stroke-opacity:1"
       d="m 480.47852,569.55391 4.03054,-5.95224 2.83007,2.34183 5.0537,-2.53699 3.51522,3.83137 2.34709,-4.41682 3.43651,2.53698 4.44726,-2.53698 3.23438,2.73214 2.62792,-4.09822 6.36064,8.13137 -3.53056,2.60205 -34.35277,-2.63449"
       id="path34656" />
    <path
       style="fill:#d9581b;stroke:none;stroke-width:1px;stroke-linecap:butt;stroke-linejoin:miter;stroke-opacity:1;fill-opacity:1"
       d="m 449.4372,528.47414 -1.46364,-3.02487 2.63456,1.17092 1.75638,-1.46365 1.95153,2.34183 3.61032,-1.26849 0.78062,2.73214 3.41517,-0.29273 0.78061,2.82972 1.75638,-0.19515 0.39031,1.95153 3.90306,0.87818 0.48788,2.14669 2.0491,0.48788 -0.48788,2.14668 2.43941,0.68304 -0.0976,3.12244 3.12244,0.39031 -0.78061,3.22002 2.34184,1.2685 -0.39031,2.63456 3.3176,1.2685 -0.29273,4.48851 3.12245,0.19516 -2.34184,3.02487 3.3176,1.85395 -2.0491,6.04974 -4.9764,-1.46365 -17.95407,-31.61477 z"
       id="path34837" />
    <path
       style="display:inline;fill:#ef7838;stroke:none;stroke-width:1px;stroke-linecap:butt;stroke-linejoin:miter;stroke-opacity:1;fill-opacity:1"
       d="m 442.44342,605.16783 -2.10469,-8.34395 3.31186,-0.41398 -0.41399,-5.24377 2.89788,-0.82796 0.41398,-3.72584 3.31185,-0.55198 0.96596,-5.10577 4.13982,-0.27599 2.06991,-5.10578 h 4.41581 l 2.34589,-3.44985 3.17387,0.96596 2.34589,-3.44985 4.27782,1.10395 4.13907,-5.09225 2.74417,3.90314 -8.81516,9.33076 -19.04317,11.86748 z"
       id="path35244" />
    <path
       style="fill:#ffdab3;stroke:none;stroke-width:1px;stroke-linecap:butt;stroke-linejoin:miter;stroke-opacity:1;fill-opacity:1"
       d="m 498.02021,646.36372 c 0,0 -8.14165,0.41398 -11.5915,-1.24195 -3.44984,-1.65593 0.96596,-1.10395 0.96596,-1.10395 0,0 -4.4158,-2.89788 -7.45167,-3.17386 -3.03587,-0.27599 -4.41581,-1.10395 -4.41581,-1.10395 l 4.6918,-1.24195 -11.31551,-3.44985 4.27781,-1.65593 -10.07356,-4.5538 3.17387,-0.82796 c 0,0 -8.69362,-1.79392 -10.62554,-2.06991 -1.93191,-0.27599 -3.72584,-2.2079 -2.06991,-2.75988 1.65593,-0.55198 -5.38176,-2.62189 -7.86565,-3.58784 -2.4839,-0.96596 0,-1.65593 0.55197,-1.79392 0.55198,-0.138 -7.04976,-1.41007 -5.65775,-4.27782 1.39201,-2.86774 1.39201,-2.86774 1.39201,-2.86774 0,0 1.78185,-2.65202 -1.39201,-3.34199 -3.17386,-0.68997 1.8287,-2.14359 1.8287,-2.14359 l 11.00474,8.9053 12.41945,8.27964 11.5915,9.52158 14.35137,10.62553 z"
       id="path40101" />
    <path
       style="fill:#ef7838;stroke:none;stroke-width:1px;stroke-linecap:butt;stroke-linejoin:miter;stroke-opacity:1;fill-opacity:1"
       d="m 449.4372,528.47414 -2.92729,4.09821 3.3176,2.14668 -3.70791,1.95153 1.95153,2.34184 -2.34183,2.92729 1.75637,2.34184 -2.14668,3.7079 1.56122,2.34184 -2.73214,3.7079 1.95153,3.12245 -1.56122,3.51275 1.75637,2.34184 -2.14668,5.46428 2.14668,2.14668 -1.56122,4.87883 4.48852,0.97576 -2.34184,2.92729 8.06588,1.26954 -7.09011,-19.22361 4.09821,-19.32014 0.58546,-8.19642 z"
       id="path40491" />
    <path
       style="fill:#ef7838;stroke:none;stroke-width:1px;stroke-linecap:butt;stroke-linejoin:miter;stroke-opacity:1;fill-opacity:1"
       d="m 544.96456,527.83989 2.58578,0.68304 -1.37024,3.1678 2.2079,1.65593 -1.51793,2.89787 1.79392,2.4839 v 3.03586 l 2.3459,1.93192 -1.24195,4.13982 2.48389,1.24194 -0.68997,2.89788 2.06991,2.48389 -1.93191,3.44985 2.2079,2.2079 -0.68997,3.31185 2.3459,3.58785 -2.48389,1.79392 1.24194,1.79392 -1.93191,1.65593 0.13799,3.17386 -2.2079,0.96596 0.41398,3.17386 -4.00182,-1.10395 0.68997,3.58784 -8.78481,1.42983 4.369,-2.25779 6.7617,-12.00548 0.138,-6.7617 -1.10396,-8.14165 -5.10577,-14.35137 -2.06991,-5.79575 z"
       id="path41033" />
    <path
       style="fill:#ef7838;stroke:none;stroke-width:1px;stroke-linecap:butt;stroke-linejoin:miter;stroke-opacity:1;fill-opacity:1"
       d="m 542.91546,589.06912 8.19642,-5.56185 -4.3798,-5.03658 z"
       id="path41101" />
  </g>
  <g
     inkscape:groupmode="layer"
     id="layer5"
     inkscape:label="trees"
     style="display:inline">
    <path
       id="path3692-10"
       style="display:inline;fill:#440009;fill-opacity:1;stroke:none;stroke-width:40;stroke-miterlimit:4;stroke-dasharray:none;stroke-opacity:1"
       d="M 662.73047 322.73633 C 654.81567 323.0448 652.06106 326.11505 672.70898 337.16211 C 692.49389 347.74747 732.46408 383.12049 768.77539 417.11133 A 370 370 0 0 0 770 400 A 370 370 0 0 0 769.91406 396.46484 C 763.48972 390.82123 757.39206 385.49904 752.08984 380.94141 C 714.00524 348.20498 683.7207 324.88086 683.7207 324.88086 C 683.7207 324.88086 670.64527 322.42786 662.73047 322.73633 z " />
    <path
       id="path3692-79"
       style="display:inline;fill:#55000c;fill-opacity:1;stroke:none;stroke-width:50.9482;stroke-miterlimit:4;stroke-dasharray:none;stroke-opacity:1"
       d="M 30.814406,366.25195 A 370,600.26024 0 0 0 29.498,396.1002 c 15.230464,19.34119 25.886719,33.23548 25.886719,33.23548 l 25.21875,-5.1173 c 0,0 -23.417487,-27.44983 -49.789063,-57.96643 z" />
    <path
       style="fill:#55000c;fill-opacity:1;stroke:none;stroke-width:1px;stroke-linecap:butt;stroke-linejoin:miter;stroke-opacity:1"
       d="m 135.05671,336.21975 c 0,0 94.4129,-116.77843 112.08474,-157.84411 17.67183,-41.06567 6.93687,14.49987 6.93687,14.49987 0,0 -17.52464,28.72399 -41.74567,64.1817 -24.22104,35.4577 -74.12055,104.38078 -74.12055,104.38078 z"
       id="path96321"
       sodipodi:nodetypes="cscscc" />
    <path
       id="path3692-1"
       style="display:inline;fill:#55000c;fill-opacity:1;stroke:none;stroke-width:40;stroke-miterlimit:4;stroke-dasharray:none;stroke-opacity:1"
       d="m 149.88281,128.19141 a 370,370 0 0 0 -32.35156,33.30664 v 26.64648 99.66211 99.66211 99.66406 l -3.08594,99.66211 v 47.58594 a 370,370 0 0 0 36.19531,38.18555 l -1.70507,-85.77149 2.52343,-100.64258 -2,-105.98046 -1.6289,-95.67774 0.87695,-96.34961 z" />
    <path
       id="path3692-1-9"
       style="display:inline;fill:#440009;fill-opacity:1;stroke:none;stroke-width:40;stroke-miterlimit:4;stroke-dasharray:none;stroke-opacity:1"
       d="m 149.88281,128.19141 c -11.47053,10.41395 -22.27565,21.53806 -32.35156,33.30664 v 26.64648 99.66211 99.66211 99.66406 l -3.08594,99.66211 v 47.39453 c 12.94005,-20.64575 33.70449,-67.41286 25.67362,-173.62759 -12.09947,-160.0254 -9.06356,-174.99239 -7.82568,-189.59538 0.91171,-10.75524 10.35008,-53.71818 16.363,-77.25164 l 0.0508,-5.57031 z"
       sodipodi:nodetypes="ccccccccssccc" />
    <path
       id="path3692-52"
       style="display:inline;fill:#55000c;fill-opacity:1;stroke:none;stroke-width:40;stroke-miterlimit:4;stroke-dasharray:none;stroke-opacity:1"
       d="M 90.365234,197.78711 A 370,370 0 0 0 48.21875,287.09766 v 66.45507 100 59.34961 a 370,370 0 0 0 49.867188,99.625 l -1.730469,-34.6875 -1.173828,-115.45507 0.232421,-55.72852 -1.40625,-89.07422 -3.521484,-105.51953 z" />
    <path
       id="path3692-52-6"
       style="display:inline;fill:#440009;fill-opacity:1;stroke:none;stroke-width:40;stroke-miterlimit:4;stroke-dasharray:none;stroke-opacity:1"
       d="m 90.365234,197.78711 a 370,370 0 0 0 -31.416015,60.0625 c 21.706089,46.2283 23.806584,80.25396 24.576172,98.10937 0.914544,21.21857 -2.921565,46.02427 -25.759766,110.84766 -6.939029,19.69557 -6.106084,43.78013 -1.617187,67.76953 a 370,370 0 0 0 41.042968,76.58008 l 0.345703,-9.63281 -1.18164,-23.6836 -1.173828,-115.45507 0.232421,-55.72852 -1.40625,-89.07422 -3.521484,-105.51953 z" />
    <path
       id="path3692-8"
       style="display:inline;fill:#54612a;fill-opacity:1;stroke:none;stroke-width:40;stroke-miterlimit:4;stroke-dasharray:none;stroke-opacity:1"
       d="M 389.61032,30.086 C 258.90731,33.746514 139.84141,106.12042 76.415,220.461 c 7.987931,2.02005 17.7029,3.10789 29.7461,2.79687 92.54983,-2.39009 86.60252,-40.53331 122.19922,-74.47461 21.57677,-20.57336 28.27058,-32.22689 73.47851,-29.10156 45.20793,3.12531 63.81853,-21.68382 77.23828,-60.896481 3.78676,-11.064958 5.03156,-21.179781 10.53321,-28.699219 z"
       sodipodi:nodetypes="ccssssc" />
    <path
       id="path3692-97"
       style="display:inline;fill:#4d5b20;fill-opacity:1;stroke:none;stroke-width:40;stroke-miterlimit:4;stroke-dasharray:none;stroke-opacity:1"
       d="M 377.13867,31.634766 A 370,370 0 0 0 91.962891,195.6543 c 3.844386,0.24348 7.878376,0.37663 12.328129,0.26172 92.54983,-2.39009 86.60251,-40.53331 122.19921,-74.47461 21.57677,-20.57336 28.27059,-32.226896 73.47852,-29.101566 45.13267,3.120107 63.7552,-21.605611 77.16992,-60.705078 z" />
    <path
       id="path3692-3"
       style="display:inline;fill:#475320;fill-opacity:1;stroke:none;stroke-width:40;stroke-miterlimit:4;stroke-dasharray:none;stroke-opacity:1"
       d="m 193.53125,93.550781 a 370,370 0 0 0 -88.71289,84.929689 c 11.7683,8.72124 27.6538,12.23906 45.70312,-5.56641 29.02924,-28.63703 32.10296,-55.25648 43.00977,-79.363279 z" />
    <path
       id="path3692-0"
       style="display:inline;fill:#440009;fill-opacity:1;stroke:none;stroke-width:40;stroke-miterlimit:4;stroke-dasharray:none;stroke-opacity:1"
       d="m 741.308,256.358 c 0,0 6.55674,42.92419 7.17568,70.23312 1.20757,54.2185 -42.50213,128.96159 -23.18298,185.81511 l 16.0073,40.35021 c 20.47629,-46.60674 31.11479,-96.93748 31.25,-147.84375 -0.0372,-51.14587 -10.67778,-101.72857 -31.25,-148.55469 z"
       sodipodi:nodetypes="cccccc" />
    <path
       id="path3692-28"
       style="display:inline;fill:#54612a;fill-opacity:1;stroke:none;stroke-width:39.86;stroke-miterlimit:4;stroke-dasharray:none;stroke-opacity:1"
       d="m 575.54846,73.802 c 0.51026,5.066994 -0.15492,10.655368 0.0137,16.904297 0.80803,29.968173 8.25832,51.108593 39.92447,58.695313 31.6662,7.5867 33.7619,17.0772 44.15252,35.9336 17.14214,31.10869 4.8993,56.16403 67.84534,77.76367 7.21821,2.47688 13.38193,3.76308 18.79951,4.26953 A 367.41724,370 0 0 0 575.54846,73.802 Z" />
    <path
       id="path3692-32"
       style="display:inline;fill:#4d5b20;fill-opacity:1;stroke:none;stroke-width:40;stroke-miterlimit:4;stroke-dasharray:none;stroke-opacity:1"
       d="M 578.50977 76.007812 C 579.95541 103.60864 588.1763 123.0516 618.24609 130.25586 C 649.91229 137.84256 652.00782 147.33305 662.39844 166.18945 C 679.54058 197.29814 667.2981 222.35349 730.24414 243.95312 C 732.33838 244.67175 734.3199 245.26281 736.24414 245.79102 A 370 370 0 0 0 578.50977 76.007812 z " />
    <path
       id="path3692-90"
       style="display:inline;fill:#55000c;fill-opacity:1;stroke:none;stroke-width:40;stroke-miterlimit:4;stroke-dasharray:none;stroke-opacity:1"
       d="m 770.917,370.68679 c -53.27758,57.99936 -37.41624,126.32722 -21.57148,164.53354 A 370,370 0 0 0 772.80396,399.5599 370,370 0 0 0 770.917,370.68679 Z" />
    <path
       style="fill:#ef7838;stroke:none;stroke-width:1px;stroke-linecap:butt;stroke-linejoin:miter;stroke-opacity:1;fill-opacity:1"
       d="m 519.34942,569.347 5.02763,-1.77784 2.89788,3.17386 5.10577,-0.82796 1.65593,3.86383 4.82979,-0.82796 0.27599,4.27781 3.03586,0.82796 0.82797,3.17387 4.41581,0.82796 0.41398,4.27781 5.51976,2.3459 -2.4839,2.89787 3.86384,1.79392 -3.66853,2.46556 -19.37647,-9.36525 -8.9696,-10.62554 z"
       id="path39694" />
  </g>
  <g
     inkscape:groupmode="layer"
     id="layer4"
     inkscape:label="sky"
     style="display:inline">
    <circle
       style="opacity:1;fill:#ffffff;fill-opacity:1;stroke:none;stroke-width:0.953994;stroke-miterlimit:4;stroke-dasharray:none;stroke-opacity:1"
       id="path56323"
       cx="-241.09189"
       cy="521.12805"
       r="42.732143"
       transform="rotate(-90.765992)" />
    <ellipse
       style="display:inline;opacity:1;fill:#4f7e9d;fill-opacity:1;stroke:none;stroke-width:0.893;stroke-miterlimit:4;stroke-dasharray:none;stroke-opacity:1"
       id="path94458"
       cx="-213.45593"
       cy="498.59821"
       rx="43.054115"
       ry="41.39819"
       transform="rotate(-90.765992)" />
  </g>
  <g
     inkscape:groupmode="layer"
     id="layer8"
     inkscape:label="flower1"
     style="display:inline">
    <path
       style="fill:#c4d134;fill-opacity:1;stroke:none;stroke-width:0.665812px;stroke-linecap:butt;stroke-linejoin:miter;stroke-opacity:1"
       d="m 211.8125,374.26693 c 0,0 -2.60133,-13.34043 17.98456,-12.76952 14.97528,0.41532 11.58799,3.25088 11.58799,3.25088 0,0 -2.51296,17.25173 -29.57255,9.51864 z"
       id="path36671"
       sodipodi:nodetypes="cscc" />
    <path
       style="fill:#d9e27b;fill-opacity:1;stroke:none;stroke-width:0.712659px;stroke-linecap:butt;stroke-linejoin:miter;stroke-opacity:1"
       d="m 212.57072,403.06705 c 0,0 -3.89199,-14.01776 18.1227,-15.13089 16.01466,-0.80976 12.63737,2.49942 12.63737,2.49942 0,0 -1.23814,18.61935 -30.76007,12.63147 z"
       id="path36671-9"
       sodipodi:nodetypes="cscc" />
    <path
       style="fill:#c4d134;fill-opacity:1;stroke:none;stroke-width:0.712659px;stroke-linecap:butt;stroke-linejoin:miter;stroke-opacity:1"
       d="m 211.95791,436.54653 c 0,0 -6.65601,-12.93609 14.67457,-18.49414 15.517,-4.04322 12.88163,-0.11745 12.88163,-0.11745 0,0 2.56659,18.48311 -27.5562,18.61159 z"
       id="path36671-2"
       sodipodi:nodetypes="cscc" />
    <path
       style="fill:#c4d134;fill-opacity:1;stroke:none;stroke-width:0.794783px;stroke-linecap:butt;stroke-linejoin:miter;stroke-opacity:1"
       d="m 212.07117,496.61203 c 0,0 -7.42303,-14.42678 16.3656,-20.62532 17.30512,-4.50915 14.36606,-0.131 14.36606,-0.131 0,0 2.86235,20.61303 -30.73166,20.75632 z"
       id="path36671-4"
       sodipodi:nodetypes="cscc" />
    <path
       style="fill:#d9e27b;fill-opacity:1;stroke:none;stroke-width:0.771447px;stroke-linecap:butt;stroke-linejoin:miter;stroke-opacity:1"
       d="m 211.64797,528.96269 c 0,0 -4.09103,-15.20744 19.7486,-16.22094 17.3422,-0.73728 13.65766,2.81541 13.65766,2.81541 0,0 -1.50214,20.14385 -33.40626,13.40553 z"
       id="path36671-3"
       sodipodi:nodetypes="cscc" />
    <path
       style="fill:#c4d134;fill-opacity:1;stroke:none;stroke-width:0.782397px;stroke-linecap:butt;stroke-linejoin:miter;stroke-opacity:1"
       d="m 211.30519,555.33909 c 0,0 -3.49907,-15.58362 20.70076,-15.59733 17.60424,-0.01 13.71969,3.43336 13.71969,3.43336 0,0 -2.37831,20.34798 -34.42045,12.16397 z"
       id="path36671-22"
       sodipodi:nodetypes="cscc" />
    <path
       style="fill:#c4d134;fill-opacity:1;stroke:none;stroke-width:0.753721px;stroke-linecap:butt;stroke-linejoin:miter;stroke-opacity:1"
       d="m 212.01454,463.86644 c 0,0 -7.03952,-13.68143 15.52008,-19.55974 16.41107,-4.27619 13.62385,-0.12422 13.62385,-0.12422 0,0 2.71447,19.54807 -29.14393,19.68396 z"
       id="path36671-21"
       sodipodi:nodetypes="cscc" />
    <path
       style="fill:#c4d134;fill-opacity:1;stroke:none;stroke-width:0.794783px;stroke-linecap:butt;stroke-linejoin:miter;stroke-opacity:1"
       d="m 212.07117,592.27452 c 0,0 -7.42303,-14.42679 16.3656,-20.62533 17.30513,-4.50915 14.36607,-0.131 14.36607,-0.131 0,0 2.86235,20.61303 -30.73167,20.75633 z"
       id="path36671-0"
       sodipodi:nodetypes="cscc" />
    <path
       style="fill:#c4d134;fill-opacity:1;stroke:none;stroke-width:0.665812px;stroke-linecap:butt;stroke-linejoin:miter;stroke-opacity:1"
       d="m 210.10332,374.26693 c 0,0 2.60133,-13.34043 -17.98456,-12.76952 -14.97528,0.41532 -11.58799,3.25088 -11.58799,3.25088 0,0 2.51296,17.25173 29.57255,9.51864 z"
       id="path36671-09"
       sodipodi:nodetypes="cscc" />
    <path
       style="fill:#d9e27b;fill-opacity:1;stroke:none;stroke-width:0.712659px;stroke-linecap:butt;stroke-linejoin:miter;stroke-opacity:1"
       d="m 209.56112,405.99237 c 0,0 6.65602,-12.93609 -14.67457,-18.49414 -15.517,-4.04322 -12.88163,-0.11746 -12.88163,-0.11746 0,0 -2.56659,18.48312 27.5562,18.6116 z"
       id="path36671-9-7"
       sodipodi:nodetypes="cscc" />
    <path
       style="fill:#c4d134;fill-opacity:1;stroke:none;stroke-width:0.712659px;stroke-linecap:butt;stroke-linejoin:miter;stroke-opacity:1"
       d="m 209.95791,436.54653 c 0,0 6.65601,-12.93609 -14.67457,-18.49414 -15.517,-4.04322 -12.88163,-0.11745 -12.88163,-0.11745 0,0 -2.56659,18.48311 27.5562,18.61159 z"
       id="path36671-2-6"
       sodipodi:nodetypes="cscc" />
    <path
       style="fill:#c4d134;fill-opacity:1;stroke:none;stroke-width:0.794783px;stroke-linecap:butt;stroke-linejoin:miter;stroke-opacity:1"
       d="m 209.84465,496.61203 c 0,0 7.42303,-14.42678 -16.3656,-20.62532 -17.30512,-4.50915 -14.36606,-0.131 -14.36606,-0.131 0,0 -2.86235,20.61303 30.73166,20.75632 z"
       id="path36671-4-1"
       sodipodi:nodetypes="cscc" />
    <path
       style="fill:#d9e27b;fill-opacity:1;stroke:none;stroke-width:0.771447px;stroke-linecap:butt;stroke-linejoin:miter;stroke-opacity:1"
       d="m 210.26785,528.96269 c 0,0 4.09103,-15.20744 -19.7486,-16.22094 -17.3422,-0.73728 -13.65766,2.81541 -13.65766,2.81541 0,0 1.50214,20.14385 33.40626,13.40553 z"
       id="path36671-3-0"
       sodipodi:nodetypes="cscc" />
    <path
       style="fill:#c4d134;fill-opacity:1;stroke:none;stroke-width:0.782397px;stroke-linecap:butt;stroke-linejoin:miter;stroke-opacity:1"
       d="m 210.61063,555.33909 c 0,0 3.49907,-15.58362 -20.70076,-15.59733 -17.60424,-0.01 -13.71969,3.43336 -13.71969,3.43336 0,0 2.37831,20.34798 34.42045,12.16397 z"
       id="path36671-22-2"
       sodipodi:nodetypes="cscc" />
    <path
       style="fill:#c4d134;fill-opacity:1;stroke:none;stroke-width:0.753721px;stroke-linecap:butt;stroke-linejoin:miter;stroke-opacity:1"
       d="m 209.90128,463.86644 c 0,0 7.03952,-13.68143 -15.52008,-19.55974 -16.41107,-4.27619 -13.62385,-0.12422 -13.62385,-0.12422 0,0 -2.71447,19.54807 29.14393,19.68396 z"
       id="path36671-21-9"
       sodipodi:nodetypes="cscc" />
    <path
       style="fill:#c4d134;fill-opacity:1;stroke:none;stroke-width:0.794783px;stroke-linecap:butt;stroke-linejoin:miter;stroke-opacity:1"
       d="m 209.84465,592.27452 c 0,0 7.42303,-14.42679 -16.3656,-20.62533 -17.30513,-4.50915 -14.36607,-0.131 -14.36607,-0.131 0,0 -2.86235,20.61303 30.73167,20.75633 z"
       id="path36671-0-7"
       sodipodi:nodetypes="cscc" />
    <rect
       style="fill:#c4d134;fill-opacity:1;stroke:none;stroke-width:1.33827;stroke-miterlimit:4;stroke-dasharray:none;stroke-opacity:1"
       id="rect34942"
       width="4.9677825"
       height="274.49167"
       x="207.88771"
       y="349.89566"
       ry="2.6910949" />
    <path
       style="fill:#d9581b;fill-opacity:1;stroke:none;stroke-width:0.819681px;stroke-linecap:butt;stroke-linejoin:miter;stroke-opacity:1"
       d="m 170.59867,307.65114 c 0,0 -3.02597,28.04611 20.81596,41.12315 23.84195,13.07705 36.30843,-2.55027 36.30843,-2.55027 0,0 16.31054,-5.93429 11.3432,-46.48526 -2.48367,-20.27549 -4.61026,-15.57752 -9.5776,-9.02507 -4.96734,6.55244 -12.77543,14.95935 -12.77543,14.95935 l -7.20374,-24.7262 -14.07412,25.71525 -18.21359,-22.74811 z"
       id="path38056"
       sodipodi:nodetypes="cscssccccc" />
    <circle
       style="fill:#d9581b;fill-opacity:1;stroke:none;stroke-width:2;stroke-miterlimit:4;stroke-dasharray:none;stroke-opacity:1"
       id="path39953"
       cx="192.2317"
       cy="287.40536"
       r="4.2933645" />
    <ellipse
       style="fill:#d9581b;fill-opacity:1;stroke:none;stroke-width:1.71429;stroke-miterlimit:4;stroke-dasharray:none;stroke-opacity:1"
       id="path39955"
       cx="221.60884"
       cy="289.30841"
       rx="3.178205"
       ry="3.512753" />
    <rect
       style="fill:#424200;fill-opacity:1;stroke:none;stroke-width:2.25149;stroke-miterlimit:4;stroke-dasharray:none;stroke-opacity:1"
       id="rect44603"
       width="91.583031"
       height="43.054119"
       x="163.10109"
       y="615.70312"
       ry="4.0726857" />
    <rect
       style="fill:#383800;fill-opacity:1;stroke:none;stroke-width:2.21429;stroke-miterlimit:4;stroke-dasharray:none;stroke-opacity:1"
       id="rect43423"
       width="110.39517"
       height="29.770302"
       x="154.2245"
       y="595.1803"
       ry="4.7361832" />
  </g>
  <g
     inkscape:groupmode="layer"
     id="layer16"
     inkscape:label="mushroom3"
     style="display:inline">
    <path
       id="path3692-644"
       style="display:inline;fill:#820011;fill-opacity:1;stroke:none;stroke-width:40;stroke-miterlimit:4;stroke-dasharray:none;stroke-opacity:1"
       d="m 304.98439,687.81435 c 0,0 -46.62584,35.38065 -50.10413,51.74542 -0.168,0.79039 -0.30572,1.51844 -0.42731,2.20918 a 370,370 0 0 0 44.22208,16.2902 c 6.24501,-9.25842 13.02936,-27.49702 18.60111,-62.44413 0,0 -2.52801,-3.51742 -6.06558,-5.06946 z" />
    <path
       id="path3692-9"
       style="display:inline;fill:#820011;fill-opacity:1;stroke:none;stroke-width:40;stroke-miterlimit:4;stroke-dasharray:none;stroke-opacity:1"
       d="M 138.10547 621.44531 C 129.53619 628.92702 123.43962 635.26148 119.14258 640.65625 A 370 370 0 0 0 153.83594 675.76172 C 160.73574 665.8556 151.73242 626.23633 151.73242 626.23633 L 145.61914 623.35938 C 142.14701 621.72467 138.10547 621.44531 138.10547 621.44531 z " />
    <path
       id="path3692-4"
       style="display:inline;fill:#820011;fill-opacity:1;stroke:none;stroke-width:40;stroke-miterlimit:4;stroke-dasharray:none;stroke-opacity:1"
       d="m 236.22852,601.95117 c -0.74706,0.006 -1.18555,0.0391 -1.18555,0.0391 -41.17361,47.41954 -56.06148,75.86859 -59.52539,92.97266 a 370,370 0 0 0 62.52539,39.0957 c 2.00556,-1.86086 4.45368,-4.51481 7.42969,-8.32031 16.77063,-21.44508 12.15039,-116.57422 12.15039,-116.57422 l -9.91602,-4.9082 c -4.22515,-2.09162 -9.23735,-2.32125 -11.47851,-2.30469 z" />
    <path
       style="display:inline;fill:#b41a2e;fill-opacity:1;stroke:none;stroke-width:0.683265px;stroke-linecap:butt;stroke-linejoin:miter;stroke-opacity:1"
       d="m 154.86058,585.85621 c 0,0 2.91976,3.30577 8.78846,8.41802 5.8687,5.11228 14.68634,12.03106 26.48213,19.25715 11.79577,7.22608 23.52245,2.16358 41.30365,8.50503 17.7812,6.34144 44.36247,15.61646 68.18746,18.07482 95.29995,9.83338 37.76474,-13.70785 12.49893,-50.89994 -25.26583,-37.19207 -52.92769,-43.59258 -52.92769,-43.59258 0,0 -18.67587,-7.90017 -42.85925,4.39849 -24.18337,12.29871 -74.55211,23.6806 -61.47369,35.83901 z"
       id="path59824"
       sodipodi:nodetypes="cssssscsc" />
    <path
       id="path59824-9"
       style="display:inline;fill:#ca253b;fill-opacity:1;stroke:none;stroke-width:0.683265px;stroke-linecap:butt;stroke-linejoin:miter;stroke-opacity:1"
       d="m 266.38012,548.23744 c -4.48539,-1.99447 -7.18702,-2.6194 -7.18702,-2.6194 0,0 -18.67584,-7.89956 -42.85922,4.39914 -17.28186,8.78886 -47.92245,17.10969 -59.23845,25.58013 10.5716,12.81004 28.74858,26.40435 59.6789,31.55899 48.09535,8.01525 85.44861,-3.3127 108.73724,-1.76227 -4.77581,-5.03403 -9.47523,-10.41915 -13.39016,-16.18203 -17.37026,-25.56958 -35.87337,-36.58676 -45.74129,-40.97456 z" />
    <path
       id="path59824-2"
       style="display:inline;fill:#d91b34;fill-opacity:1;stroke:none;stroke-width:0.683265px;stroke-linecap:butt;stroke-linejoin:miter;stroke-opacity:1"
       d="m 266.38012,548.23744 c -4.48539,-1.99447 -7.18702,-2.6194 -7.18702,-2.6194 0,0 -18.67584,-7.89956 -42.85922,4.39914 -9.82997,4.99912 -23.87969,9.84365 -36.34283,14.65354 8.54213,12.6179 26.0981,28.31853 60.59558,27.16056 25.00668,-0.83938 46.07877,-7.40635 63.52662,-13.28099 -14.81531,-18.04941 -29.37343,-26.59569 -37.73313,-30.31285 z" />
    <path
       id="path59824-2-75"
       style="display:inline;fill:#f77a8a;fill-opacity:1;stroke:none;stroke-width:0.683265px;stroke-linecap:butt;stroke-linejoin:miter;stroke-opacity:1"
       d="m 273.02343,551.56506 a 4.8210565,4.8210565 0 0 0 2.80812,5.54138 4.8210565,4.8210565 0 0 0 4.90403,-0.70239 c -2.77887,-1.94451 -5.34243,-3.50844 -7.71215,-4.83899 z" />
    <path
       id="path59824-2-7"
       style="display:inline;fill:#f77a8a;fill-opacity:1;stroke:none;stroke-width:0.683265px;stroke-linecap:butt;stroke-linejoin:miter;stroke-opacity:1"
       d="m 237.32075,543.4752 c -5.18707,0.61543 -11.06923,2.02926 -17.41838,4.83449 10.78168,5.92461 15.98607,4.57787 18.49086,1.72619 2.52846,-2.87867 0.11301,-5.21695 0.11301,-5.21695 0,0 -0.19682,-0.605 -1.18549,-1.34373 z" />
    <path
       id="path59824-2-1"
       style="display:inline;fill:#f77a8a;fill-opacity:1;stroke:none;stroke-width:0.683265px;stroke-linecap:butt;stroke-linejoin:miter;stroke-opacity:1"
       d="m 266.38012,548.23744 c -4.48539,-1.99447 -7.18702,-2.6194 -7.18702,-2.6194 0,0 -5.13748,-2.14033 -13.46746,-2.44292 -3.01497,3.7472 -3.37387,7.44957 5.13726,11.77989 0,0 8.02177,2.98247 12.42208,1.31137 4.29238,-1.63012 6.15905,-3.73088 5.53704,-6.82558 -1.11307,-0.56052 -1.48297,-0.77696 -2.4419,-1.20336 z"
       sodipodi:nodetypes="scccscs" />
    <circle
       style="display:inline;fill:#f77a8a;fill-opacity:1;fill-rule:evenodd;stroke:none;stroke-width:1.39747;stroke-miterlimit:4;stroke-dasharray:none;stroke-opacity:1"
       id="path97337"
       cx="440.22626"
       cy="421.82419"
       r="5.3995829"
       transform="rotate(22.929083)" />
    <ellipse
       style="display:inline;fill:#f77a8a;fill-opacity:1;fill-rule:evenodd;stroke:none;stroke-width:1.45453;stroke-miterlimit:4;stroke-dasharray:none;stroke-opacity:1"
       id="path97339"
       cx="466.98376"
       cy="414.15811"
       rx="5.0138984"
       ry="4.8210564"
       transform="rotate(22.929083)" />
    <ellipse
       style="display:inline;fill:#f77a8a;fill-opacity:1;fill-rule:evenodd;stroke:none;stroke-width:0.698177;stroke-miterlimit:4;stroke-dasharray:none;stroke-opacity:1"
       id="path97339-0"
       cx="455.74622"
       cy="421.24564"
       rx="2.4066713"
       ry="2.3141072"
       transform="rotate(22.929083)" />
    <path
       style="display:inline;fill:#b41a2e;fill-opacity:1;stroke:none;stroke-width:0.419896px;stroke-linecap:butt;stroke-linejoin:miter;stroke-opacity:1"
       d="m 355.88067,723.80688 c 0,0 -2.70959,-0.0698 -7.4342,-0.8154 -4.72462,-0.74548 -11.46427,-2.16651 -19.52445,-4.86877 -8.06017,-2.70227 -10.3058,-10.22363 -20.31244,-16.09398 -10.00665,-5.87035 -24.86922,-14.72685 -35.43328,-24.97657 -42.25622,-40.99891 -8.45418,-23.19717 19.03648,-25.98206 27.49066,-2.78489 41.42611,7.71539 41.42611,7.71539 0,0 11.09394,5.6763 14.84972,21.92102 3.75576,16.24471 18.2815,44.45937 7.39206,43.10037 z"
       id="path59824-8"
       sodipodi:nodetypes="cssssscsc" />
    <path
       id="path59824-9-9"
       style="display:inline;fill:#ca253b;fill-opacity:1;stroke:none;stroke-width:0.419896px;stroke-linecap:butt;stroke-linejoin:miter;stroke-opacity:1"
       d="m 329.56826,656.43488 c 2.71014,1.32499 4.0711,2.35055 4.0711,2.35055 0,0 11.09366,5.67652 14.84941,21.92124 2.68396,11.60875 10.86244,29.32398 11.34097,37.99741 -10.20661,0.0789 -23.78524,-3.11439 -38.42434,-15.64583 -22.76321,-19.48587 -32.17574,-41.54963 -42.10045,-51.90522 4.25631,0.26163 8.64779,0.34877 12.90742,-0.0827 18.89984,-1.91461 31.39354,2.44969 37.35589,5.3646 z" />
    <path
       id="path59824-2-2"
       style="display:inline;fill:#d91b34;fill-opacity:1;stroke:none;stroke-width:0.419896px;stroke-linecap:butt;stroke-linejoin:miter;stroke-opacity:1"
       d="m 329.56826,656.43488 c 2.71014,1.32499 4.0711,2.35055 4.0711,2.35055 0,0 11.09366,5.67652 14.84941,21.92124 1.52664,6.60308 4.79207,15.13241 7.44742,22.90089 -9.31486,0.95876 -23.64026,-1.11043 -36.71483,-17.81408 -9.47753,-12.10822 -14.70426,-24.62474 -18.82621,-35.16112 14.34954,-0.14883 24.12205,3.33313 29.17311,5.80252 z" />
    <path
       id="path59824-2-75-8"
       style="display:inline;fill:#f77a8a;fill-opacity:1;stroke:none;stroke-width:0.419896px;stroke-linecap:butt;stroke-linejoin:miter;stroke-opacity:1"
       d="m 325.37829,654.62001 a 2.9627525,2.9627525 0 0 1 -3.71836,0.86533 2.9627525,2.9627525 0 0 1 -1.60537,-2.58685 c 2.0129,0.54098 3.76153,1.13086 5.32373,1.72152 z" />
    <path
       id="path59824-2-7-9"
       style="display:inline;fill:#f77a8a;fill-opacity:1;stroke:none;stroke-width:0.419896px;stroke-linecap:butt;stroke-linejoin:miter;stroke-opacity:1"
       d="m 343.2839,668.24013 c 1.75806,2.68582 3.41457,6.01419 4.60014,10.11185 -7.04687,-2.73853 -8.46735,-5.72122 -8.11327,-8.0267 0.35743,-2.32731 2.41228,-2.11293 2.41228,-2.11293 0,0 0.36262,-0.1462 1.10086,0.0277 z" />
    <path
       id="path59824-2-1-2"
       style="display:inline;fill:#f77a8a;fill-opacity:1;stroke:none;stroke-width:0.419896px;stroke-linecap:butt;stroke-linejoin:miter;stroke-opacity:1"
       d="m 329.56826,656.43488 c 2.71014,1.32499 4.0711,2.35055 4.0711,2.35055 0,0 3.0363,1.57445 6.46755,5.37798 -0.57441,2.89932 -2.17632,4.53006 -7.57594,2.23142 0,0 -4.57164,-2.60032 -5.52194,-5.3324 -0.92694,-2.66506 -0.6746,-4.37356 1.02845,-5.30245 0.70339,0.30295 0.95138,0.39166 1.53076,0.67495 z"
       sodipodi:nodetypes="scccscs" />
    <circle
       style="display:inline;fill:#f77a8a;fill-opacity:1;fill-rule:evenodd;stroke:none;stroke-width:0.858805;stroke-miterlimit:4;stroke-dasharray:none;stroke-opacity:1"
       id="path97337-8"
       cx="-603.88654"
       cy="446.97726"
       transform="matrix(-0.89023796,-0.45549574,-0.45549574,0.89023796,0,0)"
       r="3.3182828" />
    <ellipse
       style="display:inline;fill:#f77a8a;fill-opacity:1;fill-rule:evenodd;stroke:none;stroke-width:0.893872;stroke-miterlimit:4;stroke-dasharray:none;stroke-opacity:1"
       id="path97339-4"
       cx="-587.44269"
       cy="442.26614"
       rx="3.0812626"
       ry="2.9627526"
       transform="matrix(-0.89023796,-0.45549574,-0.45549574,0.89023796,0,0)" />
    <ellipse
       style="display:inline;fill:#f77a8a;fill-opacity:1;fill-rule:evenodd;stroke:none;stroke-width:0.429061;stroke-miterlimit:4;stroke-dasharray:none;stroke-opacity:1"
       id="path97339-0-1"
       cx="-594.34869"
       cy="446.6218"
       rx="1.4790061"
       ry="1.4221213"
       transform="matrix(-0.89023796,-0.45549574,-0.45549574,0.89023796,0,0)" />
    <path
       style="display:inline;fill:#b41a2e;fill-opacity:1;stroke:none;stroke-width:0.38864px;stroke-linecap:butt;stroke-linejoin:miter;stroke-opacity:1"
       d="m 90.154651,616.93112 c 0,0 1.66075,1.88032 4.99886,4.78815 3.3381,2.90784 8.353559,6.84324 15.062969,10.95344 6.70941,4.11016 13.37952,1.23063 23.49343,4.83762 10.11392,3.607 25.23329,8.88262 38.78491,10.28092 54.2064,5.59323 21.4805,-7.79699 7.10934,-28.95176 -14.37114,-21.1548 -30.10517,-24.79539 -30.10517,-24.79539 0,0 -10.6228,-4.4936 -24.37824,2.50185 -13.75546,6.99547 -42.405099,13.46948 -34.966099,20.38517 z"
       id="path59824-5"
       sodipodi:nodetypes="cssssscsc" />
    <path
       id="path59824-9-4"
       style="display:inline;fill:#ca253b;fill-opacity:1;stroke:none;stroke-width:0.38864px;stroke-linecap:butt;stroke-linejoin:miter;stroke-opacity:1"
       d="m 153.58674,595.53365 c -2.5513,-1.1344 -4.08796,-1.48991 -4.08796,-1.48991 0,0 -10.62278,-4.49327 -24.37826,2.50219 -9.82988,4.9991 -27.258179,9.73197 -33.694679,14.54994 6.01309,7.28633 16.352109,15.01875 33.945209,17.95069 27.35654,4.55906 48.60301,-1.88427 61.84953,-1.00237 -2.71647,-2.86334 -5.3895,-5.92641 -7.6163,-9.20432 -9.88016,-14.54391 -20.4047,-20.81046 -26.01754,-23.30622 z" />
    <path
       id="path59824-2-0"
       style="display:inline;fill:#d91b34;fill-opacity:1;stroke:none;stroke-width:0.38864px;stroke-linecap:butt;stroke-linejoin:miter;stroke-opacity:1"
       d="m 153.50394,595.57996 c -2.5513,-1.1344 -4.08796,-1.48991 -4.08796,-1.48991 0,0 -10.62278,-4.49326 -24.37826,2.5022 -5.59126,2.8435 -13.5827,5.59906 -20.6717,8.33491 4.85874,7.17704 14.84454,16.10753 34.46664,15.4489 14.22374,-0.47746 26.20951,-4.21274 36.13381,-7.55423 -8.42692,-10.26646 -16.70758,-15.12757 -21.46253,-17.24187 z" />
    <path
       id="path59824-2-75-5"
       style="display:inline;fill:#f77a8a;fill-opacity:1;stroke:none;stroke-width:0.38864px;stroke-linecap:butt;stroke-linejoin:miter;stroke-opacity:1"
       d="m 157.28265,597.4727 a 2.7422073,2.7422073 0 0 0 1.59723,3.15193 2.7422073,2.7422073 0 0 0 2.78939,-0.39955 c -1.58061,-1.106 -3.03876,-1.99556 -4.38664,-2.75236 z" />
    <path
       id="path59824-2-7-6"
       style="display:inline;fill:#f77a8a;fill-opacity:1;stroke:none;stroke-width:0.38864px;stroke-linecap:butt;stroke-linejoin:miter;stroke-opacity:1"
       d="m 136.97502,592.8712 c -2.95038,0.35004 -6.29615,1.15423 -9.90754,2.74985 6.13259,3.36992 9.09284,2.60388 10.51757,0.98186 1.43818,-1.63739 0.0643,-2.9674 0.0643,-2.9674 0,0 -0.11197,-0.34412 -0.67432,-0.76431 z" />
    <path
       id="path59824-2-1-9"
       style="display:inline;fill:#f77a8a;fill-opacity:1;stroke:none;stroke-width:0.38864px;stroke-linecap:butt;stroke-linejoin:miter;stroke-opacity:1"
       d="m 153.50394,595.57996 c -2.5513,-1.1344 -4.08796,-1.48991 -4.08796,-1.48991 0,0 -2.92216,-1.21746 -7.66028,-1.38953 -1.7149,2.13139 -1.91911,4.23725 2.92206,6.70038 0,0 4.56278,1.69642 7.06565,0.74588 2.44152,-0.92719 3.50327,-2.12211 3.14947,-3.88235 -0.63308,-0.3189 -0.84349,-0.44197 -1.38892,-0.68453 z"
       sodipodi:nodetypes="scccscs" />
    <circle
       style="display:inline;fill:#f77a8a;fill-opacity:1;fill-rule:evenodd;stroke:none;stroke-width:0.794877;stroke-miterlimit:4;stroke-dasharray:none;stroke-opacity:1"
       id="path97337-0"
       cx="362.77441"
       cy="500.48294"
       r="3.0712719"
       transform="rotate(22.929083)" />
    <ellipse
       style="display:inline;fill:#f77a8a;fill-opacity:1;fill-rule:evenodd;stroke:none;stroke-width:0.827333;stroke-miterlimit:4;stroke-dasharray:none;stroke-opacity:1"
       id="path97339-00"
       cx="377.99396"
       cy="496.12234"
       rx="2.8518953"
       ry="2.7422073"
       transform="rotate(22.929083)" />
    <ellipse
       style="display:inline;fill:#f77a8a;fill-opacity:1;fill-rule:evenodd;stroke:none;stroke-width:0.397121;stroke-miterlimit:4;stroke-dasharray:none;stroke-opacity:1"
       id="path97339-0-8"
       cx="371.60205"
       cy="500.15378"
       rx="1.36891"
       ry="1.3162596"
       transform="rotate(22.929083)" />
    <path
       id="path3692-644-0"
       style="display:inline;fill:#820011;fill-opacity:1;stroke:none;stroke-width:25.4134;stroke-miterlimit:4;stroke-dasharray:none;stroke-opacity:1"
       d="m 638.04495,628.80751 c 0,0 36.59009,6.63168 43.26762,14.90174 0.32251,0.39944 0.60993,0.77227 0.87749,1.12859 a 235.07405,235.07405 0 0 1 -20.36596,21.94818 c -6.2008,-3.44856 -15.2902,-11.8292 -28.49859,-30.02394 0,0 0.42037,-2.71975 1.97798,-4.61651 z" />
    <path
       id="path3692-9-1"
       style="display:inline;fill:#820011;fill-opacity:1;stroke:none;stroke-width:25.4134;stroke-miterlimit:4;stroke-dasharray:none;stroke-opacity:1"
       d="m 723.36223,548.69929 c 6.68845,2.73874 11.65465,5.29542 15.3459,7.65667 a 235.07405,235.07405 0 0 1 -13.65067,28.23048 c -6.18249,-4.53919 -8.9045,-30.20856 -8.9045,-30.20856 l 3.08483,-2.98498 c 1.75189,-1.6958 4.12444,-2.69361 4.12444,-2.69361 z" />
    <path
       id="path3692-4-7"
       style="display:inline;fill:#820011;fill-opacity:1;stroke:none;stroke-width:25.4134;stroke-miterlimit:4;stroke-dasharray:none;stroke-opacity:1"
       d="m 655.42585,561.90757 c 0.44162,-0.17404 0.70767,-0.25905 0.70767,-0.25905 35.53755,18.13931 51.07654,31.3568 57.18647,40.60882 a 235.07405,235.07405 0 0 1 -27.53267,37.90731 c -1.62416,-0.61911 -3.69778,-1.60011 -6.35635,-3.13394 -14.98186,-8.64343 -34.89272,-65.78392 -34.89272,-65.78392 l 4.67384,-5.25061 c 1.99142,-2.23741 4.8895,-3.56516 6.21374,-4.08863 z" />
    <path
       style="display:inline;fill:#b41a2e;fill-opacity:1;stroke:none;stroke-width:0.434102px;stroke-linecap:butt;stroke-linejoin:miter;stroke-opacity:1"
       d="m 704.97843,531.34982 c 0,0 -1.00356,2.61628 -3.36118,6.96296 -2.35761,4.34668 -6.06927,10.42373 -11.48535,17.34527 -5.416,6.92151 -13.52074,6.5131 -22.69604,14.23768 -9.1753,7.72457 -22.93707,19.15015 -36.57244,25.90594 -54.54145,27.0231 -25.52393,0.22967 -18.7467,-27.52092 6.77723,-27.75056 21.82076,-37.70518 21.82076,-37.70518 0,0 9.3616,-8.85113 26.48836,-6.90262 17.12686,1.94853 49.6365,-2.46552 44.55259,7.67687 z"
       id="path59824-21"
       sodipodi:nodetypes="cssssscsc" />
    <path
       id="path59824-9-43"
       style="display:inline;fill:#ca253b;fill-opacity:1;stroke:none;stroke-width:0.434102px;stroke-linecap:butt;stroke-linejoin:miter;stroke-opacity:1"
       d="m 630.24149,533.73076 c 2.22681,-2.18358 3.69608,-3.15569 3.69608,-3.15569 0,0 9.36174,-8.85076 26.48851,-6.90222 12.23915,1.39243 32.32589,-0.46122 40.94321,2.06693 -3.44697,9.97338 -11.24672,22.10302 -28.51245,32.0421 -26.84757,15.45487 -51.59787,17.00972 -65.11565,23.10593 1.72445,-4.05733 3.32545,-8.30666 4.37557,-12.60659 4.65939,-19.07854 13.22571,-29.74664 18.12473,-34.55046 z" />
    <path
       id="path59824-2-03"
       style="display:inline;fill:#d91b34;fill-opacity:1;stroke:none;stroke-width:0.434102px;stroke-linecap:butt;stroke-linejoin:miter;stroke-opacity:1"
       d="m 630.24149,533.73076 c 2.22681,-2.18358 3.69608,-3.15569 3.69608,-3.15569 0,0 9.36174,-8.85076 26.48851,-6.90222 6.96166,0.79202 16.4007,0.55466 24.8877,0.64908 -2.28167,9.40819 -9.24381,22.65362 -30.03517,29.62763 -15.07131,5.05537 -29.07295,5.82743 -40.76349,6.20649 4.8091,-14.0347 11.57611,-22.35569 15.72637,-26.42529 z" />
    <path
       id="path59824-2-75-0"
       style="display:inline;fill:#f77a8a;fill-opacity:1;stroke:none;stroke-width:0.434102px;stroke-linecap:butt;stroke-linejoin:miter;stroke-opacity:1"
       d="m 627.02635,537.18721 a 3.0629872,3.0629872 0 0 1 -0.4405,3.92222 3.0629872,3.0629872 0 0 1 -3.07513,0.6713 c 1.22214,-1.77474 2.40069,-3.27512 3.51563,-4.59352 z" />
    <path
       id="path59824-2-7-7"
       style="display:inline;fill:#f77a8a;fill-opacity:1;stroke:none;stroke-width:0.434102px;stroke-linecap:butt;stroke-linejoin:miter;stroke-opacity:1"
       d="m 646.48077,524.44085 c 3.2242,-0.78593 7.03956,-1.25102 11.44192,-0.99164 -5.1015,5.92156 -8.4985,6.27603 -10.62292,5.13504 -2.14452,-1.15181 -1.22615,-3.08021 -1.22615,-3.08021 0,0 -0.0173,-0.40384 0.40715,-1.06318 z" />
    <path
       id="path59824-2-1-8"
       style="display:inline;fill:#f77a8a;fill-opacity:1;stroke:none;stroke-width:0.434102px;stroke-linecap:butt;stroke-linejoin:miter;stroke-opacity:1"
       d="m 630.24149,533.73076 c 2.22681,-2.18358 3.69608,-3.15569 3.69608,-3.15569 0,0 2.58256,-2.41524 7.47366,-4.44578 2.62703,1.56071 3.66305,3.68478 -0.44115,8.153 0,0 -4.11228,3.55722 -7.10276,3.54002 -2.91705,-0.0168 -4.49483,-0.85259 -4.81205,-2.83283 0.53804,-0.5809 0.71014,-0.7919 1.18619,-1.25872 z"
       sodipodi:nodetypes="scccscs" />
    <circle
       style="display:inline;fill:#f77a8a;fill-opacity:1;fill-rule:evenodd;stroke:none;stroke-width:0.887862;stroke-miterlimit:4;stroke-dasharray:none;stroke-opacity:1"
       id="path97337-2"
       cx="-103.15393"
       cy="833.95856"
       r="3.4305453"
       transform="matrix(-0.72664034,0.68701807,0.68701807,0.72664034,0,0)" />
    <ellipse
       style="display:inline;fill:#f77a8a;fill-opacity:1;fill-rule:evenodd;stroke:none;stroke-width:0.924114;stroke-miterlimit:4;stroke-dasharray:none;stroke-opacity:1"
       id="path97339-6"
       cx="-86.153992"
       cy="829.08807"
       rx="3.1855063"
       ry="3.0629871"
       transform="matrix(-0.72664034,0.68701807,0.68701807,0.72664034,0,0)" />
    <ellipse
       style="display:inline;fill:#f77a8a;fill-opacity:1;fill-rule:evenodd;stroke:none;stroke-width:0.443576;stroke-miterlimit:4;stroke-dasharray:none;stroke-opacity:1"
       id="path97339-0-4"
       cx="-93.293579"
       cy="833.591"
       rx="1.5290431"
       ry="1.4702339"
       transform="matrix(-0.72664034,0.68701807,0.68701807,0.72664034,0,0)" />
    <path
       style="display:inline;fill:#b41a2e;fill-opacity:1;stroke:none;stroke-width:0.266775px;stroke-linecap:butt;stroke-linejoin:miter;stroke-opacity:1"
       d="m 615.96862,658.1175 c 0,0 1.59732,-0.6435 4.24397,-2.1368 2.64669,-1.49327 6.34267,-3.83627 10.5401,-7.23523 4.19743,-3.39898 3.8633,-8.3748 8.51552,-14.0919 4.65232,-5.71712 11.53167,-14.29041 15.54286,-22.73808 16.04485,-33.79078 -0.12079,-15.68579 -17.10285,-11.23666 -16.98201,4.44911 -22.94436,13.79486 -22.94436,13.79486 0,0 -5.34255,5.84315 -3.96953,16.34687 1.37302,10.50374 -1.00557,30.52483 5.17429,27.29694 z"
       id="path59824-8-3"
       sodipodi:nodetypes="cssssscsc" />
    <path
       id="path59824-9-9-1"
       style="display:inline;fill:#ca253b;fill-opacity:1;stroke:none;stroke-width:0.266775px;stroke-linecap:butt;stroke-linejoin:miter;stroke-opacity:1"
       d="m 616.66472,612.17027 c -1.31888,1.39072 -1.90112,2.30348 -1.90112,2.30348 0,0 -5.34237,5.84323 -3.96929,16.34694 0.98115,7.50616 0.0483,19.86765 1.69019,25.13667 6.09283,-2.22035 13.46594,-7.13745 19.39592,-17.84852 9.22085,-16.65529 9.92232,-31.87933 13.52945,-40.24801 -2.47538,1.10123 -5.06999,2.12862 -7.70135,2.81808 -11.67513,3.05876 -18.14233,8.43189 -21.04378,11.49142 z" />
    <path
       id="path59824-2-2-1"
       style="display:inline;fill:#d91b34;fill-opacity:1;stroke:none;stroke-width:0.266775px;stroke-linecap:butt;stroke-linejoin:miter;stroke-opacity:1"
       d="m 616.66472,612.17027 c -1.31888,1.39072 -1.90112,2.30348 -1.90112,2.30348 0,0 -5.34237,5.84323 -3.96929,16.34694 0.55806,4.26952 0.50908,10.07186 0.65419,15.28579 5.75754,-1.49851 13.82485,-5.91241 17.89678,-18.75941 2.95162,-9.31258 3.28231,-17.9239 3.3953,-25.11118 -8.57445,3.09899 -13.61789,7.34247 -16.07586,9.93438 z" />
    <path
       id="path59824-2-75-8-7"
       style="display:inline;fill:#f77a8a;fill-opacity:1;stroke:none;stroke-width:0.266775px;stroke-linecap:butt;stroke-linejoin:miter;stroke-opacity:1"
       d="m 618.75554,610.15925 a 1.8823411,1.8823411 0 0 0 2.40554,-0.31091 1.8823411,1.8823411 0 0 0 0.38094,-1.89641 c -1.07796,0.76916 -1.98781,1.50873 -2.78648,2.20734 z" />
    <path
       id="path59824-2-7-9-9"
       style="display:inline;fill:#f77a8a;fill-opacity:1;stroke:none;stroke-width:0.266775px;stroke-linecap:butt;stroke-linejoin:miter;stroke-opacity:1"
       d="m 611.12307,622.24397 c -0.4498,1.98922 -0.6965,4.33838 -0.49191,7.04079 3.58616,-3.19545 3.76911,-5.28641 3.0462,-6.58003 -0.72972,-1.30591 -1.90519,-0.72185 -1.90519,-0.72185 0,0 -0.2484,-0.006 -0.64914,0.26104 z" />
    <path
       id="path59824-2-1-2-8"
       style="display:inline;fill:#f77a8a;fill-opacity:1;stroke:none;stroke-width:0.266775px;stroke-linecap:butt;stroke-linejoin:miter;stroke-opacity:1"
       d="m 616.66472,612.17027 c -1.31888,1.39072 -1.90112,2.30348 -1.90112,2.30348 0,0 -1.45756,1.61166 -2.65507,4.63788 0.98595,1.59818 2.30171,2.213 5.00512,-0.35475 0,0 2.1436,-2.56335 2.10235,-4.40069 -0.0403,-1.79223 -0.57,-2.75314 -1.79009,-2.92772 -0.35139,0.33658 -0.47924,0.44445 -0.76118,0.74178 z"
       sodipodi:nodetypes="scccscs" />
    <circle
       style="display:inline;fill:#f77a8a;fill-opacity:1;fill-rule:evenodd;stroke:none;stroke-width:0.545629;stroke-miterlimit:4;stroke-dasharray:none;stroke-opacity:1"
       id="path97337-8-6"
       cx="-42.969746"
       cy="876.26666"
       transform="rotate(-47.562276)"
       r="2.108222" />
    <ellipse
       style="display:inline;fill:#f77a8a;fill-opacity:1;fill-rule:evenodd;stroke:none;stroke-width:0.567908;stroke-miterlimit:4;stroke-dasharray:none;stroke-opacity:1"
       id="path97339-4-1"
       cx="-32.522388"
       cy="873.2735"
       rx="1.9576348"
       ry="1.8823411"
       transform="rotate(-47.562276)" />
    <ellipse
       style="display:inline;fill:#f77a8a;fill-opacity:1;fill-rule:evenodd;stroke:none;stroke-width:0.272598;stroke-miterlimit:4;stroke-dasharray:none;stroke-opacity:1"
       id="path97339-0-1-7"
       cx="-36.910023"
       cy="876.04077"
       rx="0.93966472"
       ry="0.9035238"
       transform="rotate(-47.562276)" />
    <path
       style="display:inline;fill:#b41a2e;fill-opacity:1;stroke:none;stroke-width:0.246917px;stroke-linecap:butt;stroke-linejoin:miter;stroke-opacity:1"
       d="m 750.39669,535.47288 c 0,0 -0.57088,1.48816 -1.91188,3.96054 -1.34101,2.47236 -3.45214,5.92898 -6.53283,9.86595 -3.08064,3.93695 -7.69057,3.70464 -12.90946,8.09835 -5.21889,4.39373 -13.04657,10.89259 -20.80233,14.73526 -31.02306,15.37069 -14.51797,0.13062 -10.66304,-15.65384 3.85484,-15.78447 12.41155,-21.44663 12.41155,-21.44663 0,0 5.32486,-5.03451 15.06658,-3.92622 9.74166,1.10832 28.23311,-1.40237 25.34141,4.36659 z"
       id="path59824-5-3"
       sodipodi:nodetypes="cssssscsc" />
    <path
       id="path59824-9-4-7"
       style="display:inline;fill:#ca253b;fill-opacity:1;stroke:none;stroke-width:0.246917px;stroke-linecap:butt;stroke-linejoin:miter;stroke-opacity:1"
       d="m 707.88645,536.82718 c 1.26662,-1.24198 2.10228,-1.79493 2.10228,-1.79493 0,0 5.32493,-5.03432 15.06667,-3.92601 6.96159,0.79202 18.38689,-0.26234 23.28838,1.17569 -1.96062,5.67282 -6.39708,12.57214 -16.2178,18.22546 -15.27086,8.79071 -29.34878,9.67509 -37.03772,13.14263 0.9809,-2.3078 1.89153,-4.72483 2.48885,-7.17062 2.65025,-10.85183 7.52274,-16.91982 10.30934,-19.65222 z" />
    <path
       id="path59824-2-0-1"
       style="display:inline;fill:#d91b34;fill-opacity:1;stroke:none;stroke-width:0.246917px;stroke-linecap:butt;stroke-linejoin:miter;stroke-opacity:1"
       d="m 707.94601,536.83635 c 1.26663,-1.24198 2.1023,-1.79493 2.1023,-1.79493 0,0 5.32492,-5.0343 15.06666,-3.92601 3.95979,0.45051 9.32868,0.3155 14.15603,0.36922 -1.29776,5.35133 -5.25783,12.88532 -17.0839,16.85214 -8.57256,2.87547 -16.53662,3.31461 -23.18626,3.53024 2.73546,-7.98292 6.58451,-12.71588 8.94517,-15.03066 z" />
    <path
       id="path59824-2-75-5-4"
       style="display:inline;fill:#f77a8a;fill-opacity:1;stroke:none;stroke-width:0.246917px;stroke-linecap:butt;stroke-linejoin:miter;stroke-opacity:1"
       d="m 706.11726,538.80237 a 1.742221,1.742221 0 0 1 -0.2506,2.23097 1.742221,1.742221 0 0 1 -1.7491,0.38181 c 0.69519,-1.00948 1.3655,-1.86287 1.99971,-2.61277 z" />
    <path
       id="path59824-2-7-6-7"
       style="display:inline;fill:#f77a8a;fill-opacity:1;stroke:none;stroke-width:0.246917px;stroke-linecap:butt;stroke-linejoin:miter;stroke-opacity:1"
       d="m 717.18287,531.55227 c 1.83394,-0.44705 4.00407,-0.71158 6.50815,-0.564 -2.90174,3.36819 -4.83393,3.5698 -6.04227,2.9208 -1.2198,-0.65514 -0.69731,-1.75208 -0.69731,-1.75208 0,0 -0.01,-0.22969 0.23159,-0.60473 z" />
    <path
       id="path59824-2-1-9-1"
       style="display:inline;fill:#f77a8a;fill-opacity:1;stroke:none;stroke-width:0.246917px;stroke-linecap:butt;stroke-linejoin:miter;stroke-opacity:1"
       d="m 707.94601,536.83635 c 1.26663,-1.24198 2.1023,-1.79493 2.1023,-1.79493 0,0 1.46896,-1.37382 4.25101,-2.52876 1.49425,0.88772 2.08358,2.09585 -0.25082,4.63739 0,0 -2.3391,2.02335 -4.04008,2.01355 -1.65923,-0.01 -2.55669,-0.48493 -2.73712,-1.61128 0.30601,-0.33045 0.40391,-0.45045 0.67472,-0.71601 z"
       sodipodi:nodetypes="scccscs" />
    <circle
       style="display:inline;fill:#f77a8a;fill-opacity:1;fill-rule:evenodd;stroke:none;stroke-width:0.505013;stroke-miterlimit:4;stroke-dasharray:none;stroke-opacity:1"
       id="path97337-0-5"
       cx="-152.36188"
       cy="883.93323"
       r="1.9512873"
       transform="matrix(-0.72664034,0.68701807,0.68701807,0.72664034,0,0)" />
    <ellipse
       style="display:inline;fill:#f77a8a;fill-opacity:1;fill-rule:evenodd;stroke:none;stroke-width:0.525634;stroke-miterlimit:4;stroke-dasharray:none;stroke-opacity:1"
       id="path97339-00-1"
       cx="-142.69232"
       cy="881.16284"
       rx="1.8119097"
       ry="1.742221"
       transform="matrix(-0.72664034,0.68701807,0.68701807,0.72664034,0,0)" />
    <ellipse
       style="display:inline;fill:#f77a8a;fill-opacity:1;fill-rule:evenodd;stroke:none;stroke-width:0.252305;stroke-miterlimit:4;stroke-dasharray:none;stroke-opacity:1"
       id="path97339-0-8-8"
       cx="-146.75336"
       cy="883.72412"
       rx="0.86971676"
       ry="0.83626616"
       transform="matrix(-0.72664034,0.68701807,0.68701807,0.72664034,0,0)" />
  </g>
  <g
     inkscape:groupmode="layer"
     id="layer22"
     inkscape:label="mushroom4" />
</svg>
